<?xml version="1.0" standalone="no"?>
<!DOCTYPE svg PUBLIC "-//W3C//DTD SVG 20010904//EN"
 "http://www.w3.org/TR/2001/REC-SVG-20010904/DTD/svg10.dtd">
<svg version="1.0" xmlns="http://www.w3.org/2000/svg"
 width="1000.000000pt" height="167.000000pt" viewBox="0 0 1000.000000 167.000000"
 preserveAspectRatio="xMidYMid meet">
<metadata>
Created by potrace 1.15, written by Peter Selinger 2001-2017
</metadata>
<g transform="translate(0.000000,167.000000) scale(0.100000,-0.100000)"
fill="#000000" stroke="none">
<path d="M180 1275 l0 -215 80 0 80 0 0 -115 0 -114 108 -3 107 -3 3 -132 3
-133 -56 0 -55 0 2 -188 3 -187 285 0 285 0 3 188 2 187 -55 0 -55 0 0 135 0
135 111 0 110 0 -2 113 -2 112 77 3 76 3 0 214 0 215 -555 0 -555 0 0 -215z
m1090 0 l0 -185 -135 0 -135 0 0 50 0 50 -50 0 -50 0 0 -65 0 -65 104 0 104 0
1 -100 2 -100 -81 0 c-79 0 -80 0 -80 25 0 20 -5 25 -25 25 l-25 0 0 -190 0
-190 50 0 50 0 0 -160 0 -160 -260 0 -260 0 0 160 0 160 50 0 50 0 0 190 0
190 -25 0 c-20 0 -25 -5 -25 -25 0 -24 -2 -25 -75 -25 l-75 0 0 100 0 99 103
3 102 3 0 60 0 60 -52 3 -52 3 -3 -48 -3 -48 -132 -3 -133 -3 0 186 0 185 530
0 530 0 0 -185z"/>
<path d="M248 1274 c-2 -86 -2 -156 -1 -157 1 -1 47 -1 102 1 l101 3 0 45 0
44 85 0 85 0 0 -69 0 -69 121 -7 c77 -5 124 -4 131 3 5 5 8 40 6 76 l-3 66 78
0 77 0 0 -47 0 -48 110 3 110 3 0 155 0 154 -500 0 -499 0 -3 -156z"/>
<path d="M400 955 l0 -75 55 0 c52 0 55 1 55 25 0 25 1 25 90 25 l90 0 0 -255
0 -255 -34 0 c-34 0 -34 0 -38 -50 l-3 -51 130 3 130 3 3 48 3 47 -40 0 -41 0
0 255 0 255 90 0 c90 0 90 0 90 -26 0 -24 2 -25 53 -22 l52 3 3 73 3 72 -346
0 -345 0 0 -75z"/>
<path d="M618 708 l-3 -203 -52 -3 -53 -3 0 -135 0 -134 233 2 232 3 3 138 3
139 -51 -4 -50 -3 0 203 0 202 -30 0 -30 0 0 -228 0 -228 40 4 40 4 0 -81 0
-81 -155 0 c-177 0 -169 -5 -163 101 l3 54 38 3 37 3 0 225 c0 217 -1 224 -20
224 -19 0 -20 -8 -22 -202z"/>
<path d="M1494 1119 c-3 -6 -1 -16 5 -22 8 -8 11 -6 11 6 0 9 7 17 16 17 13 0
15 -11 12 -65 -3 -59 -1 -65 17 -65 18 0 20 6 17 65 -3 54 -1 65 12 65 9 0 16
-8 16 -17 0 -12 3 -14 11 -6 20 20 -1 33 -56 33 -30 0 -57 -5 -61 -11z"/>
<path d="M1668 1118 c16 -16 16 -115 0 -121 -7 -3 13 -6 45 -6 53 -1 57 1 57
22 -1 20 -2 20 -11 5 -5 -10 -21 -18 -34 -18 -20 0 -25 5 -25 24 0 26 21 47
28 28 6 -20 22 -14 22 8 0 17 -5 19 -25 14 -22 -5 -25 -3 -25 20 0 21 5 26 24
26 13 0 27 -6 29 -12 3 -8 6 -6 6 5 1 14 -8 17 -51 17 -40 0 -49 -3 -40 -12z"/>
<path d="M1849 1101 c27 -38 26 -52 -4 -85 l-24 -26 24 0 c16 0 23 4 19 13 -3
8 2 19 10 26 12 10 17 9 25 -7 6 -11 7 -22 4 -26 -3 -3 9 -6 27 -6 29 0 31 2
18 13 -8 6 -22 23 -31 36 -16 23 -15 26 9 58 l25 33 -22 0 c-12 0 -19 -3 -16
-6 3 -4 1 -16 -5 -27 -10 -20 -11 -20 -24 -2 -7 10 -11 22 -8 26 3 5 -7 9 -21
9 l-26 0 20 -29z"/>
<path d="M2047 1123 c-2 -5 -10 -26 -17 -48 -7 -22 -19 -50 -26 -62 -13 -21
-13 -23 6 -23 12 0 19 4 16 9 -11 17 6 41 29 41 23 0 40 -24 29 -41 -3 -5 6
-9 19 -9 l25 0 -24 58 c-13 31 -24 63 -24 70 0 13 -26 17 -33 5z m23 -60 c0
-7 -7 -13 -15 -13 -16 0 -19 9 -9 35 5 13 8 14 15 3 5 -7 9 -19 9 -25z"/>
<path d="M2202 1118 c-20 -20 -13 -46 18 -68 37 -26 39 -50 5 -50 -17 0 -25 6
-25 17 0 13 -3 14 -12 5 -9 -9 -9 -15 -1 -23 16 -16 62 -14 80 4 21 20 9 48
-28 70 -34 19 -34 40 -2 45 14 2 23 -3 26 -15 4 -14 5 -13 6 5 1 18 -4 22 -27
22 -15 0 -33 -5 -40 -12z"/>
<path d="M2430 1116 c0 -8 5 -18 10 -21 6 -3 10 1 10 9 0 9 7 16 15 16 20 0
22 -116 3 -123 -7 -3 1 -6 17 -6 l30 -1 -3 65 c-3 54 -1 65 12 65 9 0 16 -7
16 -16 0 -8 4 -13 10 -9 5 3 7 12 3 20 -8 21 -123 21 -123 1z"/>
<path d="M2608 1118 c16 -16 16 -100 0 -116 -9 -9 1 -12 45 -12 53 0 57 2 57
23 -1 20 -2 20 -11 5 -5 -10 -21 -18 -34 -18 -20 0 -25 5 -25 24 0 26 21 47
28 28 6 -20 22 -14 22 8 0 17 -5 19 -25 14 -22 -5 -25 -3 -25 20 0 21 5 26 24
26 13 0 27 -6 29 -12 3 -8 6 -6 6 5 1 14 -8 17 -51 17 -40 0 -49 -3 -40 -12z"/>
<path d="M2791 1111 c-39 -39 -16 -117 34 -122 49 -4 65 1 65 21 0 11 -4 20
-10 20 -5 0 -10 -7 -10 -15 0 -22 -47 -19 -60 4 -15 29 -12 67 6 85 20 20 54
21 54 1 0 -8 5 -15 11 -15 6 0 9 8 7 18 -5 27 -71 29 -97 3z"/>
<path d="M2945 1060 l0 -70 30 1 c17 0 24 3 18 6 -7 2 -13 18 -13 34 0 26 3
29 30 29 35 0 49 -23 31 -51 -10 -17 -8 -19 21 -18 18 0 27 3 21 6 -8 3 -13
26 -13 63 0 37 5 60 13 63 6 3 -3 6 -22 6 -28 1 -32 -1 -21 -14 19 -23 4 -45
-30 -45 -25 0 -30 4 -30 24 0 13 6 27 13 29 6 3 -1 6 -18 6 l-30 1 0 -70z"/>
<path d="M3247 1122 c6 -4 13 -34 15 -67 l3 -60 45 0 45 0 3 55 c2 30 8 60 14
67 8 10 4 13 -18 12 -16 0 -23 -3 -16 -6 12 -5 17 -79 6 -107 -7 -19 -35 -21
-52 -4 -16 16 -16 105 1 111 6 3 -4 6 -23 6 -20 0 -30 -3 -23 -7z"/>
<path d="M3435 1060 c0 -57 3 -70 15 -70 12 0 15 8 12 34 -8 67 1 72 35 18 18
-29 37 -52 43 -52 6 0 10 26 10 64 0 42 4 66 13 69 6 3 -1 6 -18 6 -20 0 -25
-2 -17 -8 9 -5 12 -24 10 -52 l-3 -44 -32 53 c-20 31 -40 52 -50 52 -16 0 -18
-10 -18 -70z"/>
<path d="M3628 1118 c16 -16 16 -115 0 -121 -7 -3 3 -5 22 -5 19 0 29 2 23 5
-8 3 -13 26 -13 63 0 37 5 60 13 63 6 3 -4 6 -22 6 -27 1 -32 -2 -23 -11z"/>
<path d="M3727 1124 c6 -3 21 -34 33 -70 12 -35 27 -64 34 -64 7 0 23 29 35
64 13 36 28 67 34 70 7 2 -1 5 -16 5 -16 1 -26 -3 -22 -9 7 -11 -15 -90 -25
-90 -10 0 -32 79 -25 90 4 6 -8 10 -27 9 -18 0 -28 -3 -21 -5z"/>
<path d="M3915 1060 l0 -70 53 0 c47 0 52 2 52 23 -1 20 -2 21 -14 5 -7 -10
-23 -18 -35 -18 -17 0 -21 6 -21 30 0 30 23 43 33 18 3 -7 6 -3 6 9 1 16 -3
20 -19 16 -16 -4 -20 0 -20 21 0 28 26 36 48 14 9 -9 12 -8 12 5 0 14 -9 17
-47 17 l-48 0 0 -70z"/>
<path d="M4078 1123 c7 -3 12 -26 12 -63 0 -37 -5 -60 -12 -63 -7 -3 3 -5 22
-5 19 0 29 2 23 5 -18 7 -16 53 1 53 8 0 21 -12 28 -27 9 -18 22 -29 38 -30
14 -1 19 0 12 3 -19 9 -44 62 -32 69 16 10 12 52 -6 59 -9 3 -34 6 -57 5 -23
0 -36 -3 -29 -6z m72 -18 c10 -12 10 -18 0 -30 -21 -25 -40 -18 -40 15 0 33
19 40 40 15z"/>
<path d="M4269 1108 c-11 -20 -8 -25 26 -54 39 -32 40 -54 4 -54 -10 0 -19 7
-19 15 0 8 -4 15 -10 15 -5 0 -10 -9 -10 -21 0 -18 5 -20 43 -17 37 3 42 6 45
29 2 20 -4 32 -27 49 -34 24 -39 38 -16 47 9 3 22 -2 30 -13 14 -18 14 -18 15
4 0 19 -5 22 -35 22 -25 0 -37 -6 -46 -22z"/>
<path d="M4418 1123 c7 -3 12 -26 12 -63 0 -37 -5 -60 -12 -63 -7 -3 1 -6 17
-6 l30 -1 0 70 0 70 -30 -1 c-16 0 -24 -3 -17 -6z"/>
<path d="M4520 1116 c0 -8 5 -18 10 -21 6 -3 10 1 10 9 0 9 7 16 15 16 20 0
22 -116 3 -123 -7 -3 1 -6 17 -6 l30 -1 -3 65 c-3 54 -1 65 12 65 9 0 16 -8
16 -17 0 -12 3 -14 11 -6 21 21 -2 33 -62 33 -45 0 -59 -3 -59 -14z"/>
<path d="M4686 1122 c6 -4 21 -27 34 -51 18 -36 20 -49 11 -63 -10 -16 -8 -18
21 -17 18 0 27 3 21 6 -20 8 -15 42 12 90 25 41 25 43 6 43 -12 0 -18 -5 -15
-13 2 -7 -2 -21 -9 -32 -14 -18 -15 -18 -26 3 -7 13 -9 27 -6 32 4 6 -8 10
-27 10 -18 0 -28 -4 -22 -8z"/>
<path d="M4680 852 c-15 -16 -34 -47 -41 -70 -7 -24 -20 -44 -31 -47 -22 -8
-24 -25 -3 -25 8 0 15 -5 15 -11 0 -34 -34 -219 -45 -246 -13 -30 -16 -31 -44
-23 -33 9 -45 1 -35 -24 9 -23 38 -20 72 9 39 33 59 77 71 160 22 145 18 135
56 135 19 0 37 5 40 10 4 6 -8 10 -28 10 -18 0 -36 3 -40 6 -7 7 18 93 32 107
7 7 18 5 35 -6 22 -15 25 -15 37 -1 11 14 10 18 -6 30 -29 21 -54 17 -85 -14z"/>
<path d="M5195 873 c-31 -8 -42 -23 -17 -23 22 0 22 -2 22 -165 0 -140 -2
-165 -15 -165 -8 0 -15 -4 -15 -10 0 -5 25 -10 55 -10 55 0 74 13 35 23 -19 5
-21 12 -18 93 3 85 4 89 29 98 14 5 38 6 52 2 25 -6 26 -9 29 -98 3 -80 1 -92
-14 -96 -37 -9 -16 -22 37 -22 30 0 55 5 55 10 0 6 -7 10 -15 10 -12 0 -15 16
-15 88 0 116 -11 137 -70 136 -25 -1 -55 -5 -67 -9 -23 -7 -23 -6 -23 69 0 79
-1 80 -45 69z"/>
<path d="M5962 838 c3 -25 36 -37 48 -17 13 20 0 39 -27 39 -20 0 -24 -4 -21
-22z"/>
<path d="M1510 838 c0 -9 9 -18 20 -21 19 -5 20 -14 20 -147 0 -133 -1 -142
-20 -147 -47 -12 -13 -23 72 -23 114 0 163 20 197 81 19 34 23 52 19 105 -7
113 -58 152 -213 161 -81 5 -95 4 -95 -9z m200 -33 c41 -21 60 -63 60 -132 0
-96 -40 -142 -129 -151 l-51 -5 0 152 0 151 45 0 c26 0 59 -7 75 -15z"/>
<path d="M4880 841 c0 -7 9 -15 20 -18 19 -5 20 -14 20 -150 0 -136 -1 -145
-20 -150 -41 -11 -18 -23 45 -23 37 0 65 4 65 10 0 6 -9 10 -20 10 -18 0 -20
7 -20 54 l0 53 50 6 c88 11 132 62 114 134 -14 57 -44 72 -157 80 -74 5 -97 3
-97 -6z m188 -41 c25 -24 30 -85 10 -113 -15 -19 -64 -35 -90 -29 -15 3 -18
15 -18 83 l0 79 38 0 c25 0 46 -7 60 -20z"/>
<path d="M6708 820 c-25 -26 -29 -36 -24 -62 3 -18 13 -39 22 -49 14 -15 12
-19 -16 -47 -39 -39 -41 -88 -4 -131 36 -43 81 -49 140 -20 43 20 48 21 59 6
13 -19 95 -24 95 -7 0 6 -11 10 -25 10 -15 0 -31 9 -41 25 -15 23 -15 28 2 70
12 29 25 45 37 45 9 0 17 5 17 10 0 6 -22 10 -50 10 -51 0 -67 -13 -29 -23 20
-5 20 -6 3 -39 l-17 -33 -43 50 -43 49 22 14 c35 23 47 43 47 77 0 74 -95 102
-152 45z m96 -6 c23 -23 20 -67 -8 -93 l-23 -22 -27 31 c-30 36 -33 56 -9 82
20 22 46 23 67 2z m-5 -201 c55 -61 55 -76 0 -88 -63 -14 -113 53 -85 112 9
18 20 33 25 33 5 0 32 -26 60 -57z"/>
<path d="M7225 689 c-42 -113 -65 -163 -77 -167 -36 -9 -17 -22 32 -22 28 0
50 5 50 10 0 6 -7 10 -15 10 -19 0 -19 14 1 67 l17 43 61 0 61 0 18 -49 c21
-59 21 -61 2 -61 -8 0 -15 -4 -15 -10 0 -5 25 -10 55 -10 30 0 55 3 55 6 0 3
-9 13 -19 22 -10 10 -45 86 -76 170 -42 110 -62 152 -74 152 -12 0 -33 -44
-76 -161z m114 -26 c1 -9 -15 -13 -49 -13 -27 0 -50 1 -50 3 0 2 26 73 46 127
6 14 52 -89 53 -117z"/>
<path d="M2895 770 c-3 -11 -16 -25 -28 -32 l-21 -11 22 -8 c21 -8 22 -14 22
-108 0 -99 0 -101 25 -107 30 -7 95 3 95 16 0 5 -17 10 -37 12 l-38 3 -3 93
-3 92 41 0 c22 0 40 5 40 10 0 6 -18 10 -40 10 -36 0 -40 3 -40 25 0 30 -26
34 -35 5z"/>
<path d="M4038 758 c-32 -35 -33 -38 -13 -38 12 0 15 -18 15 -98 0 -63 4 -102
12 -110 13 -13 66 -16 92 -6 28 11 17 24 -18 24 -42 0 -46 9 -46 111 l0 79 40
0 c22 0 40 5 40 10 0 6 -18 10 -40 10 -36 0 -40 3 -40 25 0 32 -9 31 -42 -7z"/>
<path d="M7718 758 c-32 -35 -33 -38 -13 -38 12 0 15 -18 15 -98 0 -63 4 -102
12 -110 13 -13 49 -15 86 -6 34 10 26 22 -15 26 l-38 3 -3 93 -3 92 41 0 c22
0 40 5 40 10 0 6 -18 10 -40 10 -36 0 -40 3 -40 25 0 32 -9 31 -42 -7z"/>
<path d="M9630 743 c0 -13 7 -19 24 -19 18 0 22 4 18 20 -3 12 -7 15 -10 8 -3
-10 -7 -10 -18 -1 -11 9 -14 8 -14 -8z"/>
<path d="M1904 716 c-30 -30 -34 -40 -34 -85 0 -64 20 -104 60 -121 38 -16
116 -8 138 14 23 23 10 28 -29 12 -19 -8 -46 -12 -62 -9 -35 7 -67 47 -67 84
l0 29 86 0 86 0 -7 33 c-11 52 -41 77 -93 77 -37 0 -50 -6 -78 -34z m116 -5
c22 -42 14 -51 -50 -51 -33 0 -60 4 -60 9 0 4 9 20 21 35 25 32 73 36 89 7z"/>
<path d="M2130 738 l-25 -10 23 -9 c21 -8 22 -12 22 -152 0 -139 -1 -145 -22
-160 -22 -15 -20 -16 40 -16 40 -1 61 3 57 9 -3 6 -13 10 -21 10 -10 0 -14 12
-14 45 0 45 0 45 35 45 93 0 141 53 133 148 -4 45 -10 60 -32 79 -30 26 -93
32 -115 11 -11 -10 -14 -10 -18 0 -6 14 -29 15 -63 0z m164 -37 c10 -11 20
-37 23 -59 10 -72 -44 -132 -104 -117 -22 5 -23 10 -23 94 0 62 4 91 13 94 29
12 75 6 91 -12z"/>
<path d="M2443 735 c-32 -22 -30 -55 2 -55 20 0 25 5 25 26 0 23 3 25 38 22
34 -3 37 -5 40 -38 3 -35 2 -35 -60 -55 -49 -15 -66 -26 -76 -47 -30 -64 35
-108 111 -77 24 10 32 10 35 1 4 -14 72 -16 72 -2 0 6 -7 10 -15 10 -12 0 -15
16 -15 88 0 119 -10 136 -80 140 -38 2 -62 -2 -77 -13z m107 -144 c0 -46 -2
-50 -31 -60 -39 -13 -69 1 -69 33 0 32 27 53 98 75 1 1 2 -21 2 -48z"/>
<path d="M2700 743 c-45 -15 -45 -15 -22 -24 21 -8 22 -14 22 -100 0 -82 -2
-91 -20 -96 -40 -11 -18 -23 40 -23 33 0 60 4 60 10 0 6 -9 10 -20 10 -18 0
-20 7 -20 78 0 42 4 82 8 88 13 20 47 33 63 23 23 -14 29 -11 29 16 0 32 -30
34 -71 4 l-29 -20 0 20 c0 21 -10 24 -40 14z"/>
<path d="M3050 738 c-25 -11 -25 -11 -2 -15 21 -4 22 -9 22 -100 0 -86 -2 -95
-20 -100 -39 -10 -19 -23 35 -23 30 0 55 5 55 10 0 6 -7 10 -15 10 -12 0 -15
17 -15 94 0 89 1 94 23 100 71 19 87 -2 87 -116 0 -61 -2 -70 -20 -75 -39 -10
-19 -23 35 -23 30 0 55 5 55 10 0 6 -7 10 -15 10 -12 0 -15 17 -15 94 0 100 3
106 54 106 38 0 46 -19 46 -112 0 -72 -3 -88 -15 -88 -8 0 -15 -4 -15 -10 0
-5 25 -10 55 -10 54 0 74 13 35 23 -18 5 -20 14 -20 100 0 74 -4 99 -16 111
-19 20 -66 20 -103 1 -26 -13 -30 -13 -41 0 -15 18 -73 20 -103 4 -16 -9 -22
-9 -25 0 -5 14 -29 13 -62 -1z"/>
<path d="M3522 734 c-33 -23 -52 -67 -52 -120 0 -39 5 -51 34 -80 27 -27 42
-34 74 -34 50 0 102 18 102 36 0 16 -16 19 -24 5 -10 -16 -60 -19 -92 -6 -32
13 -61 63 -50 90 4 12 23 15 86 15 74 0 80 2 80 20 0 29 -26 76 -45 84 -30 11
-90 6 -113 -10z m95 -16 c6 -7 13 -23 16 -35 5 -22 2 -23 -59 -23 -56 0 -63 2
-57 18 17 47 76 70 100 40z"/>
<path d="M3740 738 l-25 -10 23 -9 c21 -8 22 -14 22 -100 0 -82 -2 -91 -20
-96 -39 -10 -19 -23 35 -23 30 0 55 5 55 10 0 6 -7 10 -15 10 -23 0 -22 185 1
194 26 10 69 7 82 -6 19 -19 16 -177 -3 -184 -32 -13 -13 -24 40 -24 30 0 55
5 55 10 0 6 -9 10 -20 10 -19 0 -20 7 -20 93 0 111 -12 137 -66 137 -20 0 -45
-5 -57 -11 -16 -9 -22 -9 -25 0 -4 13 -28 13 -62 -1z"/>
<path d="M4423 743 c-56 -11 -113 -111 -98 -172 24 -96 151 -96 200 -1 18 35
19 119 1 142 -12 16 -59 40 -74 37 -4 -1 -17 -4 -29 -6z m63 -38 c22 -33 14
-116 -13 -153 -22 -30 -66 -40 -89 -21 -19 16 -19 111 1 149 28 54 75 65 101
25z"/>
<path d="M5445 740 c-3 -5 1 -10 9 -10 19 0 33 -26 76 -143 33 -87 33 -89 16
-124 -16 -33 -19 -35 -52 -28 -33 6 -35 5 -32 -17 4 -33 47 -36 76 -5 12 12
48 88 81 167 37 90 66 146 75 148 34 7 14 22 -29 22 -47 0 -54 -5 -31 -24 12
-9 9 -23 -17 -90 l-31 -79 -14 34 c-55 134 -54 130 -32 136 11 3 17 9 14 14
-7 12 -101 11 -109 -1z"/>
<path d="M5752 734 c-18 -12 -22 -24 -20 -52 3 -32 9 -40 55 -66 58 -33 68
-48 52 -77 -16 -30 -83 -23 -87 9 -2 12 -10 22 -18 22 -11 0 -14 -9 -12 -32 3
-33 4 -33 60 -36 69 -4 98 18 98 73 0 30 -5 37 -47 61 -62 35 -75 51 -62 75
14 27 69 26 76 -1 8 -32 35 -25 31 8 -3 25 -7 27 -53 30 -34 2 -57 -3 -73 -14z"/>
<path d="M5953 743 c-26 -5 -31 -23 -8 -23 12 0 15 -18 15 -100 0 -82 -3 -100
-15 -100 -8 0 -15 -4 -15 -10 0 -5 25 -10 55 -10 54 0 74 13 35 23 -18 5 -20
14 -20 116 0 83 -3 111 -12 110 -7 -1 -23 -4 -35 -6z"/>
<path d="M6108 721 c-31 -28 -33 -33 -33 -96 0 -63 2 -68 33 -96 36 -32 90
-39 137 -17 39 18 30 26 -25 20 -43 -4 -55 -1 -74 17 -13 12 -27 36 -30 53 -8
42 10 105 35 118 31 17 64 8 67 -17 2 -14 10 -23 22 -23 25 0 31 23 14 49 -12
17 -26 21 -64 21 -41 0 -56 -5 -82 -29z"/>
<path d="M6328 733 c-41 -49 -25 -90 48 -124 41 -20 45 -25 42 -53 -3 -29 -6
-31 -43 -31 -34 0 -40 3 -43 23 -2 12 -10 22 -18 22 -11 0 -14 -9 -12 -32 3
-33 4 -33 60 -36 67 -3 98 18 98 68 0 30 -32 70 -57 70 -8 0 -25 11 -39 25
-20 20 -23 28 -14 45 15 28 70 28 77 0 8 -32 35 -25 31 8 -3 25 -6 27 -59 30
-43 2 -58 -1 -71 -15z"/>
<path d="M7510 730 c-41 -41 -18 -85 69 -132 50 -27 36 -78 -21 -78 -21 0 -32
7 -40 25 -16 35 -28 31 -28 -10 l0 -35 54 0 c70 0 109 27 104 73 -2 23 -12 37
-38 54 -72 46 -86 60 -74 80 6 10 25 19 43 21 26 3 34 -1 38 -17 8 -31 23 -25
23 9 0 30 -1 30 -55 30 -42 0 -60 -5 -75 -20z"/>
<path d="M7900 743 c-45 -15 -45 -15 -22 -24 21 -8 22 -14 22 -100 0 -82 -2
-91 -20 -96 -40 -11 -18 -23 40 -23 33 0 60 4 60 10 0 6 -9 10 -20 10 -18 0
-20 7 -20 79 0 74 2 81 26 100 20 15 31 18 44 11 27 -14 30 -13 30 15 0 32
-30 34 -71 4 l-29 -20 0 20 c0 21 -10 24 -40 14z"/>
<path d="M8112 734 c-12 -8 -29 -28 -37 -44 -30 -58 -12 -140 37 -174 31 -22
96 -20 135 4 62 37 69 146 13 202 -23 23 -37 28 -77 28 -28 0 -58 -7 -71 -16z
m114 -25 c14 -16 19 -36 19 -84 0 -73 -20 -105 -66 -105 -42 0 -69 41 -69 105
0 90 67 138 116 84z"/>
<path d="M8360 738 c-21 -9 -22 -12 -7 -15 15 -4 17 -17 17 -104 0 -81 -3 -99
-15 -99 -8 0 -15 -4 -15 -10 0 -5 25 -10 55 -10 30 0 55 5 55 10 0 6 -6 10
-14 10 -11 0 -15 20 -18 91 -3 101 1 109 61 109 41 0 51 -23 51 -115 0 -68 -2
-77 -20 -82 -39 -10 -19 -23 35 -23 30 0 55 5 55 10 0 6 -7 10 -15 10 -12 0
-15 16 -15 88 0 116 -11 137 -70 136 -25 -1 -56 -5 -69 -9 -17 -6 -22 -5 -17
3 9 15 -20 15 -54 0z"/>
<path d="M8670 722 c-56 -56 -49 -165 13 -202 39 -24 104 -26 135 -4 31 21 52
66 52 109 0 78 -47 125 -123 125 -40 0 -54 -5 -77 -28z m129 -18 c15 -19 21
-41 21 -79 0 -64 -27 -105 -69 -105 -42 0 -64 32 -69 98 -3 47 0 62 18 85 29
36 71 37 99 1z"/>
<path d="M8930 738 l-25 -10 23 -9 c21 -8 22 -14 22 -100 0 -82 -2 -91 -20
-96 -39 -10 -19 -23 35 -23 30 0 55 5 55 10 0 6 -7 10 -15 10 -12 0 -15 17
-15 94 0 100 3 106 54 106 38 0 46 -19 46 -112 0 -72 -3 -88 -15 -88 -8 0 -15
-4 -15 -10 0 -5 25 -10 55 -10 30 0 55 5 55 10 0 6 -7 10 -15 10 -12 0 -15 17
-15 94 0 100 3 106 54 106 38 0 46 -19 46 -112 0 -72 -3 -88 -15 -88 -8 0 -15
-4 -15 -10 0 -5 25 -10 55 -10 54 0 74 13 35 23 -18 5 -20 14 -20 100 0 78 -3
97 -18 110 -23 21 -64 22 -103 2 -27 -14 -31 -14 -45 0 -18 18 -66 20 -97 4
-16 -9 -22 -9 -25 0 -4 13 -28 13 -62 -1z"/>
<path d="M9330 740 c0 -5 6 -10 14 -10 12 0 96 -198 96 -228 0 -7 -7 -27 -16
-43 -13 -25 -20 -30 -47 -27 -23 2 -32 -1 -35 -15 -4 -21 19 -31 53 -23 29 7
49 44 120 219 28 69 53 117 61 117 8 0 14 5 14 10 0 6 -20 10 -45 10 -25 0
-45 -4 -45 -10 0 -5 7 -10 15 -10 20 0 20 -4 -17 -94 l-31 -78 -28 68 c-32 79
-35 104 -14 104 8 0 15 5 15 10 0 6 -25 10 -55 10 -30 0 -55 -4 -55 -10z"/>
</g>
</svg>
