<?xml version="1.0" encoding="utf-8" standalone="no"?>
<!DOCTYPE svg PUBLIC "-//W3C//DTD SVG 1.1//EN"
  "http://www.w3.org/Graphics/SVG/1.1/DTD/svg11.dtd">
<!-- Created with matplotlib (http://matplotlib.org/) -->
<svg height="504pt" version="1.1" viewBox="0 0 864 504" width="864pt" xmlns="http://www.w3.org/2000/svg" xmlns:xlink="http://www.w3.org/1999/xlink">
 <defs>
  <style type="text/css">
*{stroke-linecap:butt;stroke-linejoin:round;}
  </style>
 </defs>
 <g id="figure_1">
  <g id="patch_1">
   <path d="
M0 504
L864 504
L864 0
L0 0
z
" style="fill:#ffffff;"/>
  </g>
  <g id="axes_1">
   <g id="patch_2">
    <path d="
M108 441
L777.6 441
L777.6 50.4
L108 50.4
z
" style="fill:#ffffff;"/>
   </g>
   <g id="line2d_1">
    <path clip-path="url(#p0c319213db)" d="
M107.961 304.24
L108.16 216.872
L108.359 285.68
L108.559 88.5457
L108.758 164.621
L108.957 163.885
L109.156 188.711
L109.356 172.779
L109.555 249.519
L109.754 252.022
L109.954 181.807
L110.153 221.014
L110.352 223.308
L110.551 208.423
L110.751 180.44
L111.149 243.805
L111.349 223.634
L111.548 152.669
L111.747 153.718
L111.946 103.039
L112.146 120.07
L112.345 267.951
L112.544 212.571
L112.744 203.476
L112.943 284.935
L113.142 235.843
L113.341 233.02
L113.541 265.887
L113.74 87.6627
L113.939 279.933
L114.139 217.081
L114.338 215.317
L114.537 174.54
L114.936 242.078
L115.135 198.468
L115.334 202.041
L115.534 65.2657
L115.733 183.299
L116.131 92.6583
L116.331 178.943
L116.53 177.698
L116.729 167.663
L116.929 289.568
L117.128 171.602
L117.327 241.332
L117.526 211.037
L117.726 228.809
L117.925 236.501
L118.124 311.172
L118.324 194.721
L118.523 205.374
L118.722 182.242
L118.921 113.956
L119.32 190.86
L119.519 189.44
L120.316 90.1737
L120.715 229.069
L121.114 181.661
L121.313 239.997
L121.512 265.017
L121.711 143.356
L121.911 231.311
L122.11 174.236
L122.309 219.087
L122.509 206.252
L122.708 265.404
L122.907 253.657
L123.106 230.608
L123.306 300.199
L123.505 226.522
L123.704 212.718
L123.904 252.883
L124.103 138.608
L124.501 276.988
L124.701 162.261
L124.9 287.599
L125.099 204.93
L125.299 267.49
L125.498 104.709
L125.697 160.148
L125.896 260.647
L126.096 176.467
L126.295 173.215
L126.494 186.851
L126.694 156.643
L126.893 226.124
L127.092 220.623
L127.291 241.12
L127.491 225.203
L127.69 170.927
L127.889 151.178
L128.089 166.075
L128.288 219.621
L128.487 232.729
L128.686 222.317
L129.085 139.525
L129.284 254.043
L129.484 161.901
L129.683 139.555
L129.882 187.562
L130.081 206.895
L130.281 87.7975
L130.48 294.59
L130.679 200.92
L130.879 200.984
L131.078 217.414
L131.277 192.265
L131.476 215.77
L131.676 212.105
L131.875 188.962
L132.074 100.294
L132.473 205.495
L132.672 150.483
L132.871 302.005
L133.071 202.25
L133.27 190.058
L133.469 293.583
L133.669 270.497
L133.868 267.651
L134.266 209.122
L134.466 298.11
L134.665 160.772
L134.864 173.842
L135.064 269.568
L135.263 270.724
L135.462 167.599
L135.661 181.429
L135.861 223.309
L136.06 240.645
L136.259 197.235
L136.459 205.746
L136.658 201.25
L136.857 221.885
L137.056 229.18
L137.256 185.313
L137.654 256.044
L137.854 236.763
L138.252 112.165
L138.451 164.882
L138.651 336.809
L138.85 175.763
L139.049 280.307
L139.249 142.896
L139.448 154.933
L139.647 215.689
L139.846 188.234
L140.046 276.819
L140.245 130.24
L140.444 140.313
L140.644 227.46
L140.843 187.404
L141.042 198.381
L141.241 142.287
L141.441 148.824
L141.64 184.749
L142.039 149.243
L142.238 164.403
L142.437 278.022
L142.636 180.152
L143.035 267.426
L143.633 125.782
L143.832 129.793
L144.031 60.504
L144.231 61.5392
L144.629 210.787
L144.829 227.603
L145.028 135.528
L145.227 165.564
L145.426 231.18
L145.626 225.747
L146.024 315.016
L146.224 304.172
L146.622 136.447
L147.021 261.202
L147.22 244.211
L147.419 181.315
L147.619 166.436
L147.818 192.103
L148.017 171.003
L148.416 305.631
L149.213 140.096
L149.412 202.811
L149.611 208.746
L150.01 71.0921
L150.209 254.356
L150.409 254.761
L150.608 284.92
L151.006 181.404
L151.206 162.991
L151.604 191.732
L152.003 169.968
L152.202 136.91
L152.601 271.047
L152.8 139.239
L152.999 252.769
L153.199 128.833
L153.398 237.041
L153.597 211.018
L153.796 143.634
L153.996 222.677
L154.195 217.687
L154.394 279.168
L154.594 168.148
L154.793 213.599
L154.992 191.493
L155.191 205.839
L155.391 251.437
L155.59 247.539
L155.789 246.502
L155.989 281.433
L156.387 164.239
L156.586 157.359
L156.786 190.44
L156.985 200.8
L157.184 185.314
L157.384 159.515
L157.583 154.617
L157.782 225.59
L157.981 222.274
L158.181 226.582
L158.38 191.056
L158.579 218.476
L158.779 160.795
L158.978 162.854
L159.177 137.375
L159.376 182.036
L159.576 133.742
L159.775 163.724
L159.974 220.309
L160.174 153.822
L160.373 213.173
L160.572 233.912
L161.17 121.819
L161.369 142.288
L161.569 212.937
L161.768 167.668
L161.967 160.38
L162.166 139.097
L162.366 233.778
L162.565 175.663
L162.764 158.179
L162.964 198.225
L163.163 155.302
L163.362 205.257
L163.561 176.104
L163.761 258.123
L163.96 251.004
L164.159 155.355
L164.359 212.217
L164.558 200.383
L164.757 226.054
L164.956 219.901
L165.156 225.805
L165.355 256.262
L165.554 198.825
L165.754 195.992
L165.953 208.246
L166.152 232.779
L166.351 240.78
L166.551 203.718
L166.75 217.215
L166.949 209.788
L167.348 262.545
L167.547 257.65
L167.746 234.286
L167.946 234.645
L168.145 179.78
L168.344 174.262
L168.743 238.9
L168.942 210.657
L169.141 232.662
L169.341 181.31
L169.54 190.731
L169.739 244.897
L169.939 204.298
L170.138 207.687
L170.337 185.957
L170.536 270.953
L170.935 199.191
L171.134 120.484
L171.732 209.704
L171.931 92.7097
L172.33 278.487
L172.729 169.028
L173.127 300.091
L173.326 168.697
L173.526 259.108
L173.725 183.444
L173.924 175.761
L174.124 232.301
L174.323 184.361
L174.522 229.661
L175.12 197.637
L175.519 246.749
L175.718 200.331
L175.917 277.758
L176.116 267.676
L176.316 166.81
L176.714 230.957
L177.113 187.073
L177.312 243.018
L177.711 137.523
L178.109 275.258
L178.309 201.038
L178.508 249.001
L178.707 227.146
L178.906 178.697
L179.106 210.273
L179.305 214.065
L179.504 150.237
L179.704 180.984
L179.903 229.479
L180.102 160.662
L180.301 209.816
L180.501 224.937
L180.7 161.731
L181.099 240.871
L181.298 161.672
L181.497 136.641
L181.696 184.845
L182.294 219.118
L182.494 118.41
L182.693 186.788
L182.892 179.382
L183.091 244.569
L183.291 218.373
L183.49 160.485
L183.889 210.754
L184.088 270.787
L184.287 245.351
L184.486 165.49
L184.686 199.359
L184.885 160.266
L185.084 187.148
L185.284 105.99
L185.483 227.415
L185.682 212.793
L185.881 117.806
L186.081 79.6198
L186.28 214.051
L186.479 251.974
L186.679 182.451
L186.878 165.107
L187.077 207.23
L187.276 100.402
L187.476 182.659
L187.675 192.29
L187.874 143.703
L188.074 199.444
L188.273 194.407
L188.472 164.847
L188.671 239.73
L188.871 184.125
L189.07 167.74
L189.269 185.776
L189.469 184.837
L189.668 215.288
L189.867 220.044
L190.066 163.036
L190.266 178.199
L190.465 216.737
L190.664 131.334
L191.063 217.45
L191.262 207.485
L191.461 250.303
L191.661 226.634
L191.86 234.714
L192.059 273.326
L192.259 282.525
L192.657 195.628
L192.856 169.182
L193.255 226.653
L193.454 207.372
L193.853 121.288
L194.052 255.881
L194.251 229.929
L194.451 249.099
L194.65 240.121
L194.849 219.501
L195.049 211.582
L195.447 154.142
L195.846 191.061
L196.244 117.475
L196.444 201.486
L196.643 199.731
L196.842 151.444
L197.041 189.568
L197.241 194.537
L197.44 79.3259
L197.639 138.795
L197.839 243.566
L198.038 188.38
L198.237 231.009
L198.436 119.069
L198.636 254.369
L199.234 211.304
L199.433 266.876
L199.831 185.078
L200.031 237.651
L200.23 192.998
L200.629 252.614
L200.828 223.18
L201.027 254.412
L201.226 166.814
L201.426 146.177
L201.625 188.522
L201.824 180.552
L202.024 165.286
L202.223 215.799
L202.621 111.65
L202.821 149.245
L203.02 144.583
L203.419 212.676
L203.618 161.597
L204.216 241.617
L204.614 194.487
L204.814 220.656
L205.013 209.303
L205.411 151.496
L205.611 192.462
L205.81 205.199
L206.009 225.835
L206.209 173.737
L206.408 175.811
L206.607 126.45
L206.806 194.565
L207.006 197.951
L207.404 224.564
L208.002 109.867
L208.201 211.541
L208.401 203.228
L208.6 229.32
L208.799 189.888
L208.999 237.318
L209.198 170.785
L209.397 214.724
L209.596 183.327
L209.796 179.142
L209.995 168.123
L210.194 132.566
L210.394 195.034
L210.593 186.169
L210.792 219.872
L210.991 220.213
L211.191 167.855
L211.39 214.147
L211.789 104.938
L211.988 294.296
L212.187 101.945
L212.785 227.682
L212.984 196.017
L213.184 228.996
L213.383 177.152
L213.582 217.547
L213.781 173.031
L214.379 230.01
L214.778 139.132
L214.977 200.646
L215.176 122.55
L215.376 185.378
L215.575 156.879
L215.974 193.795
L216.173 94.2641
L216.372 151.926
L216.771 189.543
L216.97 214.522
L217.169 128.875
L217.369 162.914
L217.568 124.557
L217.767 160.159
L217.966 249.657
L218.166 233.831
L218.365 176.322
L218.764 217.231
L219.162 148.613
L219.361 208.738
L219.561 196.755
L219.76 164.941
L219.959 217.295
L220.159 230.146
L220.358 223.368
L220.557 246.373
L220.956 148.653
L221.155 171.844
L221.354 145.236
L221.554 175.243
L221.753 133.212
L221.952 152.07
L222.151 104.842
L222.351 195.859
L222.55 198.876
L222.749 157.531
L222.949 166.824
L223.148 154.524
L223.347 234.371
L223.546 104.546
L223.746 188.153
L223.945 143.378
L224.144 230.552
L224.344 180.044
L224.543 173.593
L224.742 206.205
L225.141 115.695
L225.34 209.967
L225.539 143.724
L225.938 252.511
L226.137 189.872
L226.336 203.088
L226.536 154.497
L226.735 193.534
L226.934 157.822
L227.333 188.552
L227.532 234.225
L227.731 216.861
L227.931 230.283
L228.329 203.556
L228.529 157.523
L228.728 161.391
L228.927 221.208
L229.126 166.651
L229.326 259.818
L229.724 122.154
L229.924 203.936
L230.123 205.642
L230.521 167.944
L230.721 175.243
L231.319 232.04
L231.518 203.312
L231.717 193.664
L232.116 231.446
L232.315 164.579
L232.514 153.384
L232.714 130.84
L232.913 178.04
L233.112 178.836
L233.311 210.273
L233.511 186.936
L233.71 206.024
L233.909 213.129
L234.109 210.96
L234.308 183.77
L234.507 172.355
L234.706 190.044
L235.105 165.84
L235.304 193.159
L235.504 91.0192
L235.902 207.777
L236.101 185.812
L236.301 206.052
L236.5 208.098
L236.699 159.959
L236.899 207.261
L237.098 203.323
L237.496 168.312
L237.696 214.222
L237.895 234.134
L238.294 153.541
L238.493 188.527
L238.692 193.725
L239.091 140.353
L239.29 142.033
L239.489 151.238
L239.689 223.223
L239.888 225.419
L240.087 172.167
L240.286 268.182
L240.685 198.344
L240.884 149.062
L241.084 231.336
L241.283 159.239
L241.482 162.927
L241.681 139.563
L241.881 135.046
L242.08 222.941
L242.279 166.655
L242.479 170.034
L242.678 98.5348
L243.076 170.106
L243.276 155.338
L243.475 149.27
L243.674 107.182
L243.874 189.773
L244.073 149.374
L244.272 187.052
L244.471 156.613
L244.671 225.203
L244.87 234.794
L245.069 135.891
L245.667 219.545
L246.066 152.636
L246.265 202.272
L246.464 109.621
L246.664 172.002
L246.863 175.319
L247.062 196.151
L247.261 161.762
L247.461 175.093
L247.859 240.687
L248.059 249.08
L248.457 212.415
L248.656 212.889
L248.856 209.105
L249.055 178.224
L249.254 193.652
L249.454 249.01
L249.653 199.116
L249.852 222.099
L250.251 163.724
L250.45 123.857
L250.649 128.22
L250.849 154.528
L251.048 230.937
L251.446 195.152
L251.646 210.957
L251.845 166.386
L252.244 247.05
L252.642 191.866
L252.841 219.901
L253.041 133.42
L253.439 166.164
L253.639 172.573
L253.838 163.475
L254.037 118.275
L254.236 144.684
L254.436 137.443
L254.635 219.184
L254.834 194.849
L255.034 213.58
L255.233 181.152
L255.432 241.628
L255.631 267.522
L256.229 132.173
L256.628 208.734
L256.827 201.814
L257.226 144.71
L257.425 161.902
L257.624 225.004
L257.824 244.132
L258.023 186.741
L258.222 91.9203
L258.421 180.202
L258.621 166.432
L258.82 219.872
L259.019 140.625
L259.219 147.856
L259.418 215.754
L259.617 94.4472
L259.816 210.898
L260.215 157.963
L260.414 170.161
L260.614 123.544
L260.813 204.353
L261.012 169.937
L261.211 172.248
L261.61 209.103
L261.809 105.18
L262.009 197.959
L262.208 201.504
L262.407 151.123
L262.606 212.603
L262.806 170.685
L263.005 216.671
L263.204 209.908
L263.404 208.597
L263.603 227.685
L263.802 183.741
L264.001 191.17
L264.201 212.993
L264.4 165.005
L264.998 224.703
L265.396 254.111
L265.795 204.948
L265.994 243.875
L266.194 193.39
L266.393 206.126
L266.592 210.317
L266.791 200.736
L266.991 212.839
L267.19 204.822
L267.589 148.477
L267.788 157.554
L267.987 158.341
L268.186 163.871
L268.386 197.963
L268.585 210.037
L268.784 205.705
L268.984 211.68
L269.382 186.643
L269.581 142.622
L269.781 177.488
L269.98 167.964
L270.179 211.523
L270.379 198.938
L270.578 171.751
L270.976 251.317
L271.574 155.276
L271.774 230.775
L271.973 246.89
L272.371 195.454
L272.571 211.156
L272.77 185.031
L272.969 200.513
L273.169 177.082
L273.368 172.153
L273.567 225.869
L273.766 135.207
L273.966 241.528
L274.165 153.144
L274.364 243.527
L274.564 272.638
L274.763 198.628
L274.962 220.743
L275.361 171.482
L275.759 238.33
L275.959 203.717
L276.158 148.301
L276.357 224.039
L276.556 217.128
L276.756 137.174
L276.955 255.296
L277.154 218.148
L277.354 149.906
L277.752 239.024
L277.951 136.854
L278.151 95.1204
L278.35 134.685
L278.549 209.129
L278.749 186.272
L278.948 187.77
L279.147 229.597
L279.346 223.662
L279.745 135.259
L279.944 235.472
L280.144 253.464
L280.343 158.886
L280.542 183.761
L280.741 108.14
L280.941 146.122
L281.339 119.635
L281.738 289.463
L281.937 258.365
L282.136 183.134
L282.336 191.079
L282.535 250.957
L282.734 262.637
L282.934 253.31
L283.133 220.631
L283.332 138.055
L283.731 208.222
L283.93 161.217
L284.129 187.664
L284.329 197.824
L284.528 246.871
L284.926 174.782
L285.126 209.153
L285.325 222.144
L285.524 153.18
L285.724 189.481
L285.923 181.627
L286.122 180.679
L286.321 224.473
L286.521 237.543
L286.72 158.82
L286.919 166.461
L287.119 197.572
L287.318 196.946
L287.517 234.002
L287.716 197.578
L287.916 239.402
L288.115 232.709
L288.314 175.557
L288.514 172.216
L288.713 187.678
L288.912 179.208
L289.111 226.408
L289.51 149.278
L289.709 168.959
L289.909 206.455
L290.108 165.557
L290.307 249.812
L290.706 215.627
L290.905 153.736
L291.104 134.069
L291.503 233.701
L291.702 240.113
L291.901 154.427
L292.101 174.254
L292.3 233.425
L292.499 199.379
L292.699 231.311
L292.898 198.486
L293.097 203.65
L293.296 143.619
L293.496 213.239
L293.894 199.869
L294.094 149.246
L294.293 211.855
L294.492 182.3
L294.691 122.326
L294.891 239.552
L295.489 182.302
L295.887 205.428
L296.086 161.653
L296.286 221.928
L296.485 208.613
L296.684 225.452
L297.083 172.314
L297.282 220.051
L297.481 198.762
L297.681 157.903
L297.88 153.095
L298.079 269.611
L298.279 134.232
L298.478 222.113
L298.677 196.04
L298.876 204.098
L299.076 198.154
L299.275 249.527
L299.674 173.778
L299.873 195.339
L300.072 165.744
L300.271 227.218
L300.471 177.926
L300.869 154.154
L301.069 202.826
L301.268 127.476
L301.467 198.326
L301.666 130.514
L301.866 105.754
L302.065 114.086
L302.264 210.902
L302.464 177.554
L302.663 186.049
L302.862 154.641
L303.261 202.868
L303.46 194.758
L303.659 139.06
L304.058 225.255
L304.257 205.87
L304.456 198.728
L304.656 225.941
L304.855 168.143
L305.054 204.31
L305.453 168.303
L305.652 145.663
L305.851 158.887
L306.051 181.726
L306.25 132.949
L306.449 157.638
L306.649 208.655
L306.848 177.077
L307.047 179.822
L307.246 252.281
L307.446 237.158
L307.645 174.061
L308.044 238.631
L308.243 186.668
L308.442 180.135
L308.641 181.801
L308.841 142.158
L309.04 201.351
L309.239 148.719
L309.439 215.412
L309.638 220.69
L309.837 160.166
L310.036 147.797
L310.236 164.312
L310.435 157.745
L310.634 130.489
L310.834 189
L311.033 182.167
L311.232 181.579
L311.431 175.658
L311.631 205.376
L311.83 167.779
L312.029 164.437
L312.229 169.408
L312.428 187.544
L312.627 232.717
L312.826 201.353
L313.026 195.36
L313.225 220.962
L313.424 175.651
L313.823 212.775
L314.022 272.155
L314.221 269.035
L314.421 203.311
L314.62 219.97
L314.819 143.712
L315.019 233.997
L315.218 161.654
L315.417 190.41
L315.616 179.487
L315.816 154.789
L316.015 188.844
L316.214 164.773
L316.414 168.661
L316.613 162.96
L316.812 221.975
L317.011 180.857
L317.211 189.458
L317.41 225.492
L317.609 187.987
L317.809 213.621
L318.008 139.701
L318.207 179.784
L318.406 173.833
L318.606 186.961
L318.805 314.987
L319.204 194.575
L319.403 253.407
L319.602 206.068
L319.801 250.369
L320.001 203.727
L320.2 185.468
L320.399 197.619
L320.599 136.944
L320.997 271.769
L321.196 249.708
L321.396 247.853
L321.595 199.566
L321.794 210.019
L321.994 196.792
L322.392 273.886
L322.591 164.551
L322.791 163.776
L323.189 269.121
L323.389 209.63
L323.588 227.486
L323.787 230.48
L323.986 258.344
L324.186 182.766
L324.385 232.875
L324.584 170.204
L324.784 248.713
L324.983 231.903
L325.182 253.531
L325.381 231.105
L325.581 233.49
L325.979 151.979
L326.179 206.371
L326.378 195.458
L326.577 250.172
L326.776 269.11
L326.976 208.551
L327.175 214.971
L327.374 252.314
L327.574 217.644
L327.773 210.064
L327.972 156.809
L328.171 180.084
L328.371 182.133
L328.57 197.274
L328.769 230.518
L328.969 234.634
L329.168 177.64
L329.367 191.082
L329.566 165.698
L329.766 173.781
L329.965 240.607
L330.164 219.034
L330.364 211.114
L330.563 198.286
L330.762 207.139
L330.961 192.102
L331.161 232.117
L331.559 195.597
L331.759 206.565
L331.958 191.289
L332.157 199.341
L332.356 156.93
L332.556 157.69
L332.755 207.112
L332.954 227.799
L333.154 151.503
L333.353 168.032
L333.751 228.293
L333.951 222.472
L334.15 186.63
L334.349 213.929
L334.549 221.018
L334.748 205.185
L334.947 175.468
L335.346 238.852
L335.744 147.456
L335.944 204.329
L336.143 217.138
L336.342 190.299
L336.541 248.878
L336.741 205.358
L336.94 230.279
L337.139 138.377
L337.538 208.664
L337.737 179.84
L337.936 200.905
L338.136 192.712
L338.335 246.947
L338.534 226.544
L338.734 230.314
L338.933 198.672
L339.132 215.981
L339.331 219.097
L339.531 263.214
L339.73 239.944
L339.929 235.081
L340.129 253.457
L340.328 221.297
L340.527 217.857
L340.726 265.219
L340.926 222.917
L341.125 208.71
L341.324 171.976
L341.524 157.63
L341.723 234.756
L342.121 179.818
L342.321 229.557
L342.52 172.671
L342.719 226.57
L342.919 239.272
L343.118 196.404
L343.317 256.476
L343.516 183.491
L343.716 201.03
L343.915 239.024
L344.114 184.39
L344.314 235.379
L344.513 232.23
L344.712 279.726
L344.911 185.831
L345.31 258.581
L345.509 263.285
L345.709 189.205
L345.908 246.705
L346.107 186.898
L346.306 185.864
L346.506 221.451
L346.705 183.726
L346.904 176.975
L347.303 271.65
L347.701 113.009
L348.1 267.946
L348.299 158.72
L348.499 264.477
L348.897 196.535
L349.096 251.092
L349.296 225.329
L349.495 229.61
L349.694 225.098
L349.894 161.417
L350.093 253.1
L350.292 271.79
L350.491 251.371
L350.691 181.827
L350.89 158.646
L351.089 174.627
L351.289 154.019
L351.488 255.907
L351.687 219.776
L351.886 219.419
L352.086 181.823
L352.484 291.812
L352.684 217.408
L352.883 197.255
L353.082 228.682
L353.281 234.517
L353.481 216.577
L353.68 263.399
L353.879 252.747
L354.079 254.926
L354.278 190.13
L354.477 246.058
L354.676 230.685
L354.876 245.85
L355.075 165.859
L355.274 217.044
L355.474 231.283
L355.673 223.321
L355.872 202.677
L356.071 231.021
L356.47 177.911
L356.869 236.182
L357.068 244.863
L357.466 195.743
L357.666 223.467
L357.865 193.873
L358.064 214.912
L358.264 218.758
L358.463 213.064
L358.662 214.162
L358.861 205.535
L359.061 219.243
L359.26 222.898
L359.459 261.971
L359.858 200.145
L360.057 209.171
L360.256 229.038
L360.456 227.749
L360.655 224.285
L360.854 231.438
L361.054 229.781
L361.452 184.784
L361.851 226.482
L362.05 197.982
L362.249 207.584
L362.449 234.04
L362.648 221.816
L363.046 173.12
L363.445 253.773
L363.844 217.233
L364.043 238.062
L364.641 188.341
L364.84 227.159
L365.039 206.323
L365.239 251.44
L365.438 222.445
L365.637 213.962
L365.836 232.795
L366.036 191.511
L366.235 175.612
L366.434 227.101
L366.634 243.327
L367.032 179.858
L367.231 244.18
L367.431 230.276
L367.63 243.234
L367.829 217.539
L368.029 172.626
L368.427 234.785
L368.626 207.529
L368.826 213.321
L369.025 194.935
L369.224 221.132
L369.424 231.884
L369.623 267.37
L369.822 195.759
L370.021 189.822
L370.42 210.163
L370.619 169.837
L370.819 260.849
L371.018 191.914
L371.217 257.587
L371.416 220.15
L371.616 232.981
L371.815 208.152
L372.014 209.345
L372.214 131.851
L372.413 177.803
L372.612 162.221
L372.811 229.838
L373.011 227.689
L373.21 234.363
L373.609 171.886
L373.808 200.458
L374.007 253.85
L374.206 208.051
L374.605 276.235
L374.804 221.219
L375.004 207.742
L375.203 180.395
L375.402 259.547
L375.601 184.013
L375.801 181.683
L376 174.576
L376.199 218.627
L376.399 225.477
L376.598 218.399
L376.797 182.874
L376.996 208.64
L377.196 165.841
L377.395 172.946
L377.594 195.877
L377.794 246.981
L377.993 246.594
L378.192 212.996
L378.391 201.097
L378.79 250.349
L378.989 204.071
L379.189 224.346
L379.587 181.332
L379.986 218.988
L380.185 156.393
L380.384 212.671
L380.584 188.079
L380.783 252.527
L380.982 123.763
L381.381 264.152
L381.58 241.715
L381.779 172.531
L381.979 165.093
L382.178 213.432
L382.377 218.011
L382.576 237.091
L382.776 197.585
L382.975 230.888
L383.174 155.414
L383.374 230.998
L383.573 230.459
L383.772 207.123
L384.171 230.772
L384.37 210.123
L384.569 156.572
L384.968 171.744
L385.167 205.534
L385.366 204.232
L385.566 205.059
L385.765 231.506
L385.964 220.213
L386.164 191.116
L386.363 201.968
L386.562 171.687
L386.761 183.57
L386.961 202.106
L387.559 92.995
L387.758 163.802
L387.957 135.456
L388.156 143.408
L388.555 219.909
L388.754 239.014
L388.954 240.703
L389.153 224.298
L389.751 118.138
L389.95 102.971
L390.149 141.158
L390.349 132.125
L390.747 151.967
L391.146 226.316
L391.345 199.455
L391.544 189.811
L391.744 201.958
L391.943 179.627
L392.341 232.963
L392.541 224.255
L392.74 236.497
L392.939 240.507
L393.338 187.507
L393.537 270.461
L394.135 198.021
L394.534 257.318
L394.932 155.163
L395.131 164.224
L395.53 211.223
L395.729 193.958
L395.929 229.3
L396.128 233.325
L396.327 251.922
L396.526 213.815
L396.726 198.092
L396.925 208.666
L397.124 232.392
L397.324 216.855
L397.523 243.397
L397.722 244.358
L397.921 219.457
L398.121 244.178
L398.32 233.279
L398.519 233.463
L398.719 205.244
L398.918 192.789
L399.117 211.977
L399.316 189.968
L399.516 198.208
L399.715 224.597
L399.914 206.804
L400.114 223.192
L400.313 227.475
L400.512 204.52
L400.711 237.057
L400.911 238.199
L401.11 197.499
L401.309 222.022
L401.509 199.724
L401.708 213.066
L401.907 196.457
L402.106 222.859
L402.306 199.813
L402.505 190.722
L402.904 241.282
L403.103 233.548
L403.501 182.461
L403.701 188.883
L403.9 215.182
L404.099 206.669
L404.299 236.187
L404.498 201.901
L404.697 250.135
L404.896 186.256
L405.096 183.145
L405.295 224.612
L405.494 221.302
L405.694 259.178
L405.893 226.81
L406.092 247.375
L406.291 191.492
L406.491 193.125
L406.889 147.51
L407.089 196.376
L407.288 216.342
L407.487 218.958
L407.686 170.899
L407.886 187.657
L408.085 157.139
L408.284 201.767
L408.484 215.357
L408.683 238.196
L409.081 172.587
L409.281 219.1
L409.48 216.537
L409.679 168.716
L409.879 185.949
L410.078 218.31
L410.277 282.309
L410.476 240.124
L410.676 242.62
L410.875 255.378
L411.274 196.281
L411.473 217.512
L411.672 261.905
L411.871 217.787
L412.071 248.698
L412.27 147.676
L412.469 214.785
L412.868 234.944
L413.067 224.794
L413.266 166.08
L413.466 228.803
L413.864 158.544
L414.064 236.102
L414.263 221.009
L414.462 216.318
L414.661 229.011
L415.06 209.334
L415.259 219.246
L415.459 188.361
L415.658 216.031
L415.857 188.008
L416.056 223.909
L416.256 192.599
L416.654 281.11
L416.854 212.199
L417.252 247.742
L417.451 219.622
L417.651 267.002
L417.85 208.883
L418.049 220.917
L418.249 213.439
L418.647 169.978
L418.846 197.224
L419.046 248.626
L419.245 222.652
L419.444 229.376
L419.644 229.703
L419.843 188.696
L420.042 190.98
L420.441 259.628
L421.039 180.383
L421.238 176.18
L421.437 252.9
L421.636 217.662
L421.836 230.467
L422.035 193.859
L422.234 265.043
L422.434 196.088
L422.633 183.035
L422.832 234.389
L423.031 192.939
L423.231 232.617
L423.43 225.236
L423.829 239.654
L424.028 217.998
L424.227 240.888
L424.426 168.987
L424.626 179.859
L425.024 263.692
L425.224 227.654
L425.423 239.471
L425.622 241.419
L425.821 241.585
L426.021 198.758
L426.22 219.572
L426.419 171.502
L426.619 263.289
L426.818 158.267
L427.216 244.985
L427.416 254.801
L427.615 216.617
L427.814 248.348
L428.014 207.238
L428.213 308.997
L428.412 255.144
L428.611 255.673
L428.811 243.414
L429.01 169.137
L429.209 237.01
L429.409 233.517
L429.608 262.019
L429.807 249.165
L430.006 271.752
L430.405 176.037
L430.604 243.8
L430.804 259.099
L431.003 215.039
L431.202 211.835
L431.401 238.996
L431.601 191.261
L431.8 209.247
L431.999 215.592
L432.199 249.351
L432.597 186.447
L432.796 205.166
L432.996 243.478
L433.195 209.213
L433.594 291.642
L433.793 238.13
L433.992 226.83
L434.191 229.488
L434.391 229.965
L434.59 246.882
L434.789 243.477
L434.989 234.822
L435.188 236.534
L435.387 219.882
L435.586 213.824
L435.786 232.038
L435.985 219.054
L436.184 225.376
L436.384 245.628
L436.583 237.212
L436.782 187.818
L437.181 215.048
L437.579 186.193
L437.779 229.313
L437.978 172.541
L438.177 190.095
L438.376 180.403
L438.576 196.955
L438.775 229.947
L438.974 203.915
L439.174 253.803
L439.373 258.004
L439.771 184.389
L440.17 253.293
L440.369 273.823
L440.569 257.463
L440.768 216.291
L440.967 231.312
L441.166 220.858
L441.366 196.252
L441.565 196.028
L441.964 166.885
L442.163 235.464
L442.561 165.752
L442.761 208.92
L442.96 209.6
L443.159 186.256
L443.359 222.671
L443.558 226.007
L443.757 201.259
L443.956 224.427
L444.156 217.87
L444.355 200.888
L444.554 252.131
L444.754 258.327
L444.953 249.686
L445.152 262.001
L445.351 242.84
L445.551 243.228
L445.75 246.315
L445.949 266.186
L446.149 245.667
L446.348 196.552
L446.547 238.161
L446.746 228.289
L446.946 210.494
L447.145 247.484
L447.344 234.414
L447.743 198.205
L447.942 208.802
L448.141 252.074
L448.341 219.559
L448.54 222.354
L448.739 223.48
L448.939 222.286
L449.138 238.954
L449.337 222.484
L449.536 231.168
L449.736 248.971
L449.935 241.228
L450.134 225.309
L450.533 186.662
L450.732 223.239
L450.931 231.524
L451.131 273.107
L451.529 208.916
L451.928 253.187
L452.127 243.998
L452.326 254.003
L452.526 271.028
L452.725 246.597
L452.924 237.842
L453.124 203.167
L453.323 246.307
L453.522 238.613
L453.721 201.78
L453.921 207.727
L454.12 300.742
L454.718 229.997
L454.917 219.311
L455.116 225.811
L455.316 225.563
L455.515 201.68
L455.714 204.228
L455.914 216.715
L456.113 249.874
L456.511 212.749
L456.711 223.622
L456.91 198.034
L457.109 214.476
L457.309 252.72
L457.508 250.933
L457.906 182.035
L458.106 174.724
L458.305 219.783
L458.504 216.917
L458.704 252.98
L458.903 216.797
L459.102 232.39
L459.301 262.263
L459.501 257.784
L459.7 249.798
L459.899 263.968
L460.099 248.045
L460.298 207.189
L460.497 238.579
L460.696 237.889
L460.896 270.298
L461.095 201.901
L461.294 217.672
L461.494 247.694
L461.693 252.233
L461.892 243.884
L462.091 248.388
L462.291 236.378
L462.49 274.661
L462.689 181.542
L462.889 243.643
L463.088 249.92
L463.287 251.162
L463.486 238.628
L463.686 209.887
L463.885 226.635
L464.084 199.353
L464.284 222.726
L464.483 276.084
L464.881 228.565
L465.081 271.88
L465.28 262.112
L465.679 199.063
L465.878 241.014
L466.077 218.436
L466.276 236.012
L466.476 241.52
L466.675 221.454
L466.874 254
L467.074 267.9
L467.273 217.938
L467.472 233.544
L467.871 199.936
L468.07 247.597
L468.469 216.125
L468.668 276.846
L468.867 229.374
L469.066 247.319
L469.266 246.03
L469.465 233.562
L469.664 273.296
L469.864 277.224
L470.063 238.128
L470.262 260.777
L470.461 195.813
L470.661 196.079
L470.86 226.217
L471.059 204.051
L471.259 265.383
L471.458 237.269
L471.657 240.367
L471.856 272.771
L472.056 209.21
L472.454 244.605
L472.654 202.196
L472.853 214.607
L473.052 250.411
L473.251 240.654
L473.451 209.163
L473.849 250.822
L474.049 230.591
L474.248 225.75
L474.447 203.082
L474.646 229.957
L474.846 163.055
L475.045 233.877
L475.244 216.428
L475.444 219.129
L475.643 233.349
L476.041 296.063
L476.241 221.843
L476.44 220.38
L476.839 263.078
L477.237 195.879
L477.436 206.112
L477.636 251.458
L477.835 250.85
L478.034 261.043
L478.234 260.791
L478.433 241.89
L478.632 264.137
L478.831 257.814
L479.031 205.574
L479.429 252.699
L479.629 265.999
L479.828 296.762
L480.027 162.522
L480.426 311.61
L480.824 221.547
L481.024 216.764
L481.223 257.222
L481.422 235.311
L481.621 269.495
L481.821 246.321
L482.02 266.154
L482.219 253.572
L482.618 247.758
L482.817 279.871
L483.016 259.658
L483.216 214.66
L483.415 285.852
L483.614 185.306
L483.814 254.61
L484.013 243.593
L484.212 206.072
L484.411 266.626
L484.611 266.86
L484.81 262.208
L485.009 213.097
L485.209 285.275
L485.408 201.698
L485.607 191.5
L485.806 261.262
L486.006 237.129
L486.205 253.167
L486.404 302.054
L486.803 208.146
L487.002 212.194
L487.201 200.195
L487.6 285.82
L487.999 230.49
L488.198 179.099
L488.397 272.259
L488.596 236.956
L488.796 251.719
L488.995 229.177
L489.194 250.48
L489.394 201.424
L489.593 255.686
L489.792 199.28
L489.991 229.569
L490.39 248.686
L490.589 259.445
L490.789 256.354
L490.988 263.058
L491.187 249.179
L491.386 267.154
L491.586 226.14
L491.785 243.268
L491.984 230.545
L492.184 201.787
L492.383 226.658
L492.582 265.843
L492.781 211.679
L492.981 240.18
L493.18 243.84
L493.379 254.646
L493.579 291.932
L493.778 194.263
L493.977 247.747
L494.176 263.179
L494.376 301.261
L494.575 205.122
L494.974 253.275
L495.173 169.283
L495.372 242.349
L495.571 204.382
L496.169 234.09
L496.369 215.5
L496.568 267.978
L496.767 262.019
L496.966 232.055
L497.166 272.624
L497.564 235.413
L497.764 245.885
L497.963 248.544
L498.162 219.979
L498.361 250.63
L498.561 230.598
L498.76 261.697
L498.959 160.012
L499.358 284.58
L499.557 256.544
L499.756 250.912
L499.956 235.107
L500.155 289.461
L500.554 280.357
L500.753 294.294
L500.952 244.306
L501.151 147.098
L501.351 222.331
L501.55 250.331
L501.749 229.928
L501.949 241.171
L502.148 160.126
L502.347 188.799
L502.546 154
L502.746 241.961
L502.945 273.269
L503.144 239.694
L503.344 237.126
L503.543 279.673
L503.742 182.362
L503.941 251.158
L504.141 188.187
L504.34 251.801
L504.539 230.391
L504.938 261.546
L505.137 285.652
L505.336 261.832
L505.536 299.039
L505.735 249.192
L505.934 259.54
L506.134 306.908
L506.532 228.534
L506.731 238.487
L506.931 241.525
L507.13 202.989
L507.329 273.623
L507.728 266.236
L507.927 247.537
L508.126 204.302
L508.326 236.675
L508.525 215.582
L508.924 277.727
L509.123 203.651
L509.322 252.539
L509.521 196.886
L509.721 259.659
L509.92 260.581
L510.119 251.474
L510.319 233.47
L510.518 289.085
L510.916 256.53
L511.116 247.16
L511.315 205.429
L511.514 205.886
L511.714 302.927
L511.913 241.786
L512.112 251.336
L512.311 243.245
L512.511 305.826
L512.909 224.683
L513.109 185.007
L513.308 303.832
L513.507 290.475
L513.706 256.418
L513.906 248.367
L514.105 300.715
L514.304 235.413
L514.504 257.036
L514.703 217.335
L514.902 244.844
L515.101 178.298
L515.301 258.73
L515.5 262.817
L515.699 228.625
L515.899 292.531
L516.098 230.256
L516.496 209.034
L516.696 233.468
L516.895 236.817
L517.094 226.337
L517.294 230.141
L517.493 254.768
L517.692 233.466
L517.891 267.249
L518.091 240.98
L518.29 243.704
L518.489 210.17
L518.689 301.352
L518.888 210.231
L519.087 196.868
L519.286 237.051
L519.486 244.266
L519.685 269.569
L519.884 232.529
L520.084 216.565
L520.283 253.873
L520.681 292.027
L520.881 238.001
L521.08 298.548
L521.479 197.71
L521.877 274.164
L522.076 293.974
L522.276 212.677
L522.475 254.875
L522.674 198.037
L522.874 260.083
L523.073 264.771
L523.272 246.44
L523.471 327.148
L523.671 260.209
L523.87 253.908
L524.069 279.536
L524.269 251.589
L524.468 249.477
L524.667 238.55
L524.866 294.493
L525.066 247.755
L525.265 245.192
L525.464 274.264
L525.664 259.371
L525.863 276.465
L526.062 242.839
L526.261 256.976
L526.461 252.101
L526.66 257.383
L526.859 256.831
L527.059 211.419
L527.258 208.459
L527.656 228.082
L527.856 264.067
L528.055 261.61
L528.254 253.362
L528.653 313.856
L528.852 294.404
L529.051 245.324
L529.45 280.655
L529.649 229.124
L529.849 245.29
L530.048 197.114
L530.446 275.3
L530.646 279.962
L530.845 266.651
L531.044 276.423
L531.244 295.206
L531.443 274.203
L531.642 188.457
L531.841 280.427
L532.041 225.91
L532.24 272.141
L532.439 238.983
L532.639 281.952
L532.838 230.737
L533.037 225.956
L533.236 267.811
L533.436 254.106
L533.635 313.949
L534.233 173.85
L534.631 265.59
L534.831 231.342
L535.03 250.369
L535.229 208.588
L535.429 253.8
L535.628 211.498
L536.026 269.824
L536.226 244.535
L536.425 175.18
L536.624 261.913
L536.824 236.664
L537.023 293.03
L537.222 241.205
L537.421 277.21
L537.621 262.968
L537.82 228.975
L538.019 256.884
L538.219 259.203
L538.418 202.18
L538.617 220.028
L538.816 251.521
L539.016 215.027
L539.215 231.067
L539.414 294.401
L539.813 238.468
L540.012 296.878
L540.211 220.811
L540.411 301.565
L540.61 246.684
L540.809 291.993
L541.009 231.658
L541.208 287.912
L541.407 292.405
L541.606 310.909
L541.806 271.369
L542.005 271.09
L542.404 219.316
L542.603 308.291
L543.001 240.282
L543.201 248.401
L543.4 243.147
L543.599 279.718
L543.799 291.361
L543.998 273.182
L544.197 290.197
L544.396 272.601
L544.596 283.251
L544.795 285.441
L544.994 216.648
L545.393 271.163
L545.592 195.512
L545.791 223.885
L545.991 212.212
L546.19 285.957
L546.389 204.386
L546.788 278.599
L546.987 257.631
L547.386 313.23
L547.784 242.535
L547.984 217.957
L548.382 249.421
L548.581 262.503
L548.781 221.603
L548.98 228.62
L549.179 249.173
L549.379 228.696
L549.777 315.572
L549.976 286.131
L550.176 234.972
L550.375 263.557
L550.574 226.717
L550.774 286.676
L550.973 245.021
L551.172 270.33
L551.371 279.506
L551.571 275.843
L551.77 294.882
L551.969 279.012
L552.169 217.808
L552.567 304.964
L552.766 260.202
L552.966 243.474
L553.165 285.408
L553.364 226.88
L553.763 301.189
L553.962 293.139
L554.361 224.313
L554.56 335.633
L554.759 365.361
L554.959 365.493
L555.158 259.936
L555.357 329.388
L555.556 219.622
L555.756 248.177
L555.955 255.379
L556.154 195.596
L556.354 331.404
L556.553 292.948
L556.752 361.433
L556.951 237.6
L557.151 209.042
L557.35 260.745
L557.549 242.416
L557.749 280.08
L557.948 264.039
L558.147 292.405
L558.346 278.087
L558.546 325.634
L558.944 263.351
L559.144 317.28
L559.542 256.223
L559.741 260.632
L559.941 246.484
L560.14 243.042
L560.539 278.306
L560.738 263.306
L560.937 227.23
L561.136 243.74
L561.336 286.536
L561.734 219.232
L561.934 242.231
L562.133 313.003
L562.332 284.903
L562.531 232.336
L562.731 210.67
L563.129 294.344
L563.528 248.848
L563.727 238.454
L563.926 273.904
L564.126 272.384
L564.325 266.34
L564.524 266.908
L564.724 241.308
L564.923 257.746
L565.321 315.702
L565.521 264.429
L565.72 247.517
L566.119 291.93
L566.318 270.051
L566.517 266.775
L566.916 298.115
L567.115 285.49
L567.314 301.217
L567.514 296.407
L567.912 261.975
L568.311 274.658
L568.51 256.833
L568.709 224.137
L568.909 259.901
L569.108 264.025
L569.307 222.726
L569.706 258.171
L569.905 295.301
L570.104 298.335
L570.503 231.606
L570.901 327.419
L571.3 263.443
L571.699 231.013
L571.898 292.248
L572.097 305.893
L572.296 281.933
L572.496 284.484
L572.894 250.268
L573.094 250.746
L573.293 275.687
L573.492 321.536
L573.891 302.792
L574.09 263.507
L574.289 268.242
L574.489 269.61
L574.887 242.068
L575.086 259.138
L575.286 240.656
L575.684 319.394
L575.884 291.656
L576.083 222.023
L576.481 294.857
L577.279 242.41
L577.478 244.723
L577.677 293.221
L577.876 254.65
L578.076 280.573
L578.275 242.956
L578.474 302.846
L578.674 304.645
L578.873 246.524
L579.072 248.922
L579.271 254.238
L579.471 280.1
L579.67 281.934
L579.869 263.05
L580.069 298.121
L580.268 280.783
L580.467 274.647
L580.666 245.223
L580.866 252.418
L581.065 235.198
L581.264 244.002
L581.464 221.381
L581.862 259.55
L582.061 279.926
L582.261 275.852
L582.46 249.583
L582.659 262.532
L582.859 290.064
L583.456 225.896
L583.656 272.957
L583.855 284.845
L584.054 234.513
L584.453 269.262
L584.652 265.066
L584.851 237.257
L585.051 239.01
L585.25 250.401
L585.449 304.579
L585.649 231.693
L585.848 277.45
L586.047 280.062
L586.246 273.951
L586.446 293.391
L586.645 267.852
L586.844 281.609
L587.044 265.514
L587.243 301.567
L587.442 271.991
L587.641 283.005
L587.841 269.898
L588.04 269.258
L588.239 311.056
L588.439 267.027
L588.638 253.298
L588.837 224.306
L589.036 239.057
L589.236 293.423
L589.435 249.296
L589.634 287.221
L589.834 281.458
L590.033 271.67
L590.232 240.598
L590.631 249.715
L590.83 265.015
L591.029 242.321
L591.229 293.829
L591.428 221.697
L591.627 284.696
L591.826 287.532
L592.026 288.061
L592.225 213.327
L592.424 286.976
L592.624 297.522
L592.823 337.248
L593.022 241.422
L593.221 345.934
L593.62 227.268
L594.019 274.188
L594.218 331.414
L594.417 231.696
L594.616 310.844
L594.816 322.118
L595.015 269.097
L595.214 313.525
L595.613 251.222
L595.812 282.328
L596.011 267.975
L596.211 296.533
L596.41 287.712
L596.609 244.64
L596.809 248.073
L597.008 285.243
L597.406 249.565
L597.606 258.456
L597.805 255.722
L598.004 340.87
L598.204 237.144
L598.403 293.014
L598.602 309.02
L598.801 282.148
L599.2 267.293
L599.399 270.818
L599.599 298.725
L599.798 288.358
L599.997 292.843
L600.196 237.178
L600.396 316.413
L600.595 241.569
L600.794 220.983
L600.994 259.566
L601.193 261.039
L601.392 252.629
L601.591 274.83
L601.791 260.137
L601.99 320.268
L602.389 261.298
L602.588 289.277
L602.787 261.841
L602.986 297.012
L603.186 263.256
L603.784 321.557
L603.983 301.917
L604.182 322.178
L604.381 303.149
L604.581 313.166
L604.78 254.712
L604.979 240.598
L605.179 302.425
L605.378 329.488
L605.577 258.824
L605.776 258.95
L605.976 258.716
L606.175 260.774
L606.574 245.443
L606.773 259.368
L606.972 287.33
L607.171 273.013
L607.371 272.828
L607.57 257.445
L607.769 257.772
L607.969 288.644
L608.168 278.192
L608.566 304.424
L608.766 261.537
L608.965 243.512
L609.164 245.749
L609.563 277.31
L609.762 303.329
L610.161 271.59
L610.36 249.311
L610.559 272.86
L610.759 259.802
L610.958 255.38
L611.157 254.671
L611.356 259.215
L611.556 239.694
L611.755 281.822
L611.954 290.899
L612.154 291.068
L612.353 262.633
L612.552 258.013
L612.751 272.967
L612.951 277.948
L613.15 286.765
L613.349 265.184
L613.549 262.41
L613.748 255.324
L613.947 256.22
L614.146 279.675
L614.346 263.139
L614.545 290.63
L614.744 301.195
L615.143 270.3
L615.342 279.689
L615.741 223.375
L615.94 235.451
L616.139 268.051
L616.339 269.74
L616.538 300.62
L616.936 245.862
L617.136 246.882
L617.335 267.631
L617.534 310.674
L617.734 315.226
L618.331 266.083
L618.531 309.895
L618.73 306.934
L618.929 279.161
L619.129 282.294
L619.328 291.679
L619.527 315.848
L619.726 315.037
L620.125 271.655
L620.324 256.799
L620.524 269.722
L620.723 321.006
L621.121 235.603
L621.321 267.961
L621.52 264.255
L621.719 279.227
L621.919 280.779
L622.118 269.365
L622.317 280.224
L622.516 262.727
L622.716 306.002
L622.915 300.505
L623.114 307.617
L623.314 305.132
L623.513 305.782
L623.712 281.872
L623.911 320.785
L624.111 275.543
L624.31 329.801
L624.509 286.854
L624.709 288.132
L624.908 316.98
L625.107 321.53
L625.306 256.325
L625.506 277.118
L625.705 283.567
L625.904 322.796
L626.104 335.482
L626.701 251.857
L626.901 322.611
L627.1 266.6
L627.299 318.714
L627.499 238.297
L627.698 259.283
L627.897 343.961
L628.096 256.153
L628.296 284.219
L628.495 281.357
L628.694 334.571
L628.894 262.756
L629.093 255.141
L629.292 262.331
L629.491 300.909
L629.89 286.371
L630.089 249.957
L630.488 322.547
L630.687 262.005
L630.886 281.015
L631.086 267.837
L631.285 363.16
L631.684 255.951
L631.883 267.766
L632.082 318.029
L632.281 298.154
L632.481 293.618
L632.68 279.634
L632.879 329.967
L633.079 300.377
L633.477 278.312
L633.676 306.71
L633.876 232.417
L634.075 314.446
L634.274 338.174
L634.474 280.514
L634.673 323.716
L634.872 326.054
L635.071 260.155
L635.271 270.885
L635.47 257.715
L635.669 234.702
L635.869 304.102
L636.068 281.319
L636.267 286.211
L636.466 311.374
L636.666 246.507
L636.865 262.468
L637.064 222.951
L637.264 289.56
L637.463 286.038
L637.662 267.66
L637.861 293.705
L638.061 272.536
L638.26 264.659
L638.659 315.548
L638.858 249.706
L639.057 269.637
L639.256 254.415
L639.854 314.567
L640.452 232.637
L641.05 312.291
L641.249 298.094
L641.449 270.755
L641.648 324.618
L641.847 271.646
L642.046 261.164
L642.246 282.173
L642.445 289.503
L642.644 289.789
L643.043 242.55
L643.242 246.02
L643.641 307.363
L643.84 294.56
L644.039 304.207
L644.438 247.845
L644.836 316.054
L645.036 266.669
L645.235 267.768
L645.434 286.65
L645.634 282.01
L645.833 282.921
L646.032 299.298
L646.231 291.479
L646.431 276.702
L646.63 276.411
L646.829 269.998
L647.029 281.637
L647.427 325.992
L647.626 265.275
L647.826 261.214
L648.025 296.391
L648.424 280.713
L648.623 260.055
L648.822 305.561
L649.021 291.469
L649.221 320.84
L649.42 331.464
L649.619 320.497
L649.819 321.059
L650.018 281.581
L650.217 292.364
L650.416 294.999
L650.616 287.546
L650.815 290.731
L651.014 286.388
L651.413 360.967
L651.811 260.903
L652.011 276.429
L652.21 309.494
L652.409 257.833
L652.609 312.185
L653.007 331.256
L653.206 308.455
L653.406 304.309
L653.605 248.088
L653.804 294.357
L654.004 297.025
L654.402 242.918
L654.601 286.933
L655.199 274.954
L655.399 287.846
L655.598 325.217
L655.797 283.282
L655.996 270.916
L656.196 321.544
L656.395 288.277
L656.594 305.332
L656.794 405.035
L656.993 309.861
L657.192 308.301
L657.391 313.986
L657.591 300.596
L657.79 227.731
L657.989 347.461
L658.189 317.138
L658.388 311.761
L658.587 332.523
L658.786 367.438
L658.986 333.493
L659.185 273.629
L659.584 299.547
L659.982 340.551
L660.181 300.945
L660.381 293.269
L660.58 270.858
L660.979 309.549
L661.178 258.999
L661.377 325.22
L661.576 286.699
L661.776 302.628
L661.975 200.085
L662.174 295.853
L662.374 289.172
L662.573 246.194
L662.772 270.778
L662.971 278.487
L663.37 305.339
L663.569 265.193
L663.769 282.654
L663.968 281.563
L664.167 291.061
L664.366 281.921
L664.566 245.777
L664.964 282.559
L665.363 262.822
L665.562 281.999
L665.761 243.3
L665.961 249.427
L666.16 290.751
L666.359 275.01
L666.559 300.909
L666.758 290.936
L667.156 313.355
L667.555 308.748
L667.754 266.623
L668.352 315.148
L668.551 316.482
L668.95 287.574
L669.149 320.744
L669.349 309.966
L669.548 318.866
L669.747 319.409
L669.946 288.632
L670.345 274.939
L670.744 298.799
L670.943 284.93
L671.142 287.174
L671.341 302.27
L671.541 304.495
L671.74 275.226
L671.939 272.311
L672.139 263.71
L672.537 304.962
L672.736 346.223
L673.135 299.139
L673.334 295.503
L673.534 295.965
L673.733 303.844
L673.932 321.235
L674.331 285.987
L674.53 345.042
L674.929 312.238
L675.128 337.09
L675.327 346.003
L675.526 289.222
L675.726 350.923
L675.925 317.531
L676.124 375.186
L676.324 344.273
L676.523 338.456
L676.722 299.399
L676.921 319.706
L677.121 281.075
L677.32 358.245
L677.519 267.052
L677.719 310.775
L677.918 313.427
L678.117 319.822
L678.316 340.178
L678.516 279.595
L678.914 353.544
L679.114 313.851
L679.313 339.861
L679.512 295.58
L679.711 324.553
L679.911 385.873
L680.11 286.97
L680.309 284.859
L680.708 300.272
L680.907 321.145
L681.106 288.368
L681.306 311.479
L681.505 357.708
L681.704 301.735
L681.904 323.072
L682.103 271.655
L682.501 325.421
L682.9 270.824
L683.099 310.553
L683.299 318.984
L683.498 263.642
L683.697 335.234
L683.896 303.58
L684.096 319.757
L684.295 373.221
L684.494 318.386
L684.694 304.805
L684.893 319.081
L685.092 306.852
L685.291 321.201
L685.491 315.099
L685.69 285.741
L685.889 286.902
L686.089 340.052
L686.288 322.06
L686.487 286.085
L686.686 290.871
L686.886 311.005
L687.085 304.437
L687.284 274.349
L687.882 356.848
L688.281 299.823
L688.48 304.025
L688.679 290.564
L688.879 316.408
L689.078 302.95
L689.277 309.925
L689.476 310.643
L689.676 296.394
L689.875 292.624
L690.074 328.771
L690.274 334.002
L690.473 282.678
L690.672 288.114
L690.871 311.316
L691.071 293.972
L691.27 312.771
L691.469 283.761
L692.067 377.721
L692.466 335.201
L692.665 332.013
L692.864 316.672
L693.064 312.028
L693.263 303.81
L693.462 322.252
L693.661 313.304
L693.861 361.521
L694.06 325.049
L694.459 288.717
L694.658 288.474
L694.857 335.344
L695.056 287.267
L695.256 304.549
L695.455 307.809
L695.654 284.544
L695.854 298.069
L696.053 301.169
L696.252 299.433
L696.451 341.073
L696.85 285.863
L697.049 303.961
L697.249 370.467
L697.448 289.385
L697.647 355.388
L697.846 330.032
L698.046 330.52
L698.245 376.531
L698.444 292.099
L698.644 299.151
L698.843 277.938
L699.042 335.302
L699.241 314.511
L699.441 327.358
L699.64 349.626
L700.039 295.974
L700.238 334.146
L700.437 333.189
L700.636 309.931
L700.836 334.718
L701.035 340.042
L701.234 355.455
L701.633 312.768
L701.832 333.695
L702.031 335.368
L702.231 294.671
L702.43 360.421
L702.629 368.706
L702.829 357.016
L703.227 312.224
L703.426 345.076
L703.626 356.568
L703.825 374.503
L704.224 345.689
L704.423 305.556
L704.622 354.063
L705.021 354.119
L705.419 306.615
L705.619 326.896
L706.017 278.495
L706.615 344.367
L707.014 306.763
L707.213 338.396
L707.412 351.494
L707.611 323.281
L708.209 352.729
L708.409 332.91
L708.608 288.025
L709.006 392.045
L709.206 322.444
L709.405 325.659
L709.604 317.563
L709.804 333.539
L710.003 300.059
L710.202 318.031
L710.401 312.48
L710.601 324.828
L710.8 303.246
L711.199 310.133
L711.597 358.716
L711.796 330.615
L711.996 323.293
L712.195 327.728
L712.394 323.124
L712.594 341.372
L712.793 277.652
L713.191 391.789
L713.391 391.911
L713.789 319.513
L713.989 364.607
L714.188 342.056
L714.387 297.791
L714.586 303.653
L714.985 338.487
L715.184 364.864
L715.384 271.021
L715.583 322.376
L715.981 295.083
L716.181 317.537
L716.38 365.86
L716.579 311.484
L716.779 347.546
L716.978 322.245
L717.177 279.391
L717.376 327.648
L717.576 318.026
L717.775 289.244
L717.974 238.884
L718.174 332.959
L718.373 254.974
L718.572 335.018
L718.771 280.729
L719.17 302.638
L719.369 301.946
L719.569 346.427
L719.768 359.853
L719.967 320.469
L720.166 337.499
L720.366 312.583
L720.565 334.804
L720.964 293.925
L721.163 302.393
L721.362 332.399
L721.561 322.318
L721.761 341.253
L721.96 287.845
L722.159 299.6
L722.359 296.517
L722.558 328.643
L722.757 323.746
L722.956 324.398
L723.156 331.354
L723.554 378.781
L723.754 376.798
L723.953 362.884
L724.152 337.165
L724.351 369.116
L724.551 381.257
L724.949 301.687
L725.149 321.789
L725.348 309.973
L725.547 316.514
L725.746 327.881
L725.946 282.083
L726.145 274.977
L726.344 313.556
L726.544 277.619
L726.743 276.886
L727.141 320.693
L727.341 299.785
L727.739 356.18
L727.939 351.989
L728.138 306.103
L728.337 360.601
L728.536 317.139
L728.736 318.442
L728.935 289.144
L729.134 300.001
L729.334 299.249
L729.533 335.191
L729.732 300.587
L729.931 355.702
L730.131 307.073
L730.529 355.893
L730.729 307.126
L730.928 343.027
L731.127 355.35
L731.326 339.745
L731.924 273.843
L732.124 353.303
L732.323 294.016
L732.721 376.128
L732.921 362.146
L733.12 253.602
L733.519 319.6
L733.917 286.479
L734.116 349.397
L734.316 274.803
L734.515 305.951
L734.714 239.392
L734.914 313.015
L735.113 280.93
L735.312 280.694
L735.511 319.042
L735.711 296.197
L735.91 340.954
L736.109 321.221
L736.309 336.827
L736.508 367.918
L736.707 365.417
L737.106 316.862
L737.305 346.844
L737.704 309.194
L737.903 310.467
L738.301 370.39
L738.7 276.507
L738.899 280.761
L739.099 260.134
L739.497 336.531
L739.696 293.597
L739.896 352.692
L740.294 321.043
L740.494 347.231
L740.693 333.882
L740.892 291.124
L741.091 282.957
L741.291 286.88
L741.49 309.258
L741.689 287.893
L741.889 300.45
L742.088 329.517
L742.287 277.371
L742.486 352.716
L742.686 293.888
L742.885 294.855
L743.084 301.787
L743.284 334.331
L743.483 280.907
L743.682 348.071
L743.881 278.355
L744.081 299.658
L744.28 283.681
L744.479 356.447
L744.679 342.893
L744.878 365.245
L745.077 313.442
L745.276 296.824
L745.476 316.154
L745.675 312.253
L745.874 348.669
L746.074 337.222
L746.273 350.739
L746.472 338.467
L746.671 343.613
L746.871 271.013
L747.07 251.906
L747.269 366.554
L747.469 300.614
L747.867 344.691
L748.066 313.352
L748.266 380.981
L748.465 322.317
L748.664 375.398
L749.063 322.631
L749.262 365.577
L749.461 291.064
L749.661 355.23
L749.86 376.001
L750.059 427.533
L750.259 322.247
L750.458 338.272
L750.657 375.146
L751.056 283.457
L751.255 305.419
L751.454 385.859
L751.853 375.129
L752.251 297.061
L752.65 355.04
L752.849 358.44
L753.049 314.192
L753.447 358.884
L753.646 318.093
L753.846 322.691
L754.045 318.393
L754.244 326.009
L754.444 349.283
L754.643 334.639
L754.842 287.631
L755.041 300.085
L755.241 288.516
L755.44 322.318
L755.639 330.91
L755.839 354.74
L756.237 332.047
L756.436 353.119
L756.636 332.488
L756.835 355.563
L757.034 312.932
L757.234 342.414
L757.433 302.431
L757.632 369.239
L757.831 358.889
L758.031 363.958
L758.23 325.931
L758.429 342.982
L758.629 314.596
L758.828 345.173
L759.027 343.303
L759.226 333.989
L759.426 341.993
L759.625 370.35
L759.824 321.41
L760.024 385.604
L760.223 336.204
L760.422 340.587
L760.621 340.435
L760.821 256.146
L761.02 355.417
L761.219 318.605
L761.419 373.809
L761.817 310.277
L762.016 304.253
L762.216 288.095
L762.415 330.453
L762.814 349.324
L763.013 347.191
L763.212 296.619
L763.411 316.872
L763.611 290.246
L764.009 358.513
L764.209 350.165
L764.408 377.59
L764.607 388.821
L764.806 310.001
L765.006 313.369
L765.205 344.647
L765.404 356.232
L765.604 315.799
L765.803 299.192
L766.401 343.087
L766.6 331.972
L766.799 347.282
L766.999 342.113
L767.397 351.724
L767.596 353.196
L767.796 329.271
L767.995 342.149
L768.194 369.156
L768.394 347.097
L768.593 366.381
L768.792 352.527
L768.991 358.633
L769.789 278.371
L769.988 297.647
L770.187 286.903
L770.386 313.86
L770.586 368.312
L770.785 345.394
L770.984 345.74
L771.383 281.611
L771.582 308.987
L771.781 294.82
L771.981 360.701
L772.18 250.426
L772.379 357.214
L772.579 368.219
L772.977 305.239
L773.176 367.991
L773.376 313.842
L773.575 322.349
L773.774 343.101
L773.974 303.219
L774.173 347.104
L774.372 337.891
L774.571 291.525
L774.771 328.269
L774.97 316.989
L775.169 295.038
L775.369 372.151
L775.568 345.275
L775.767 369.259
L775.966 311.911
L776.166 315.732
L776.365 348.606
L776.564 274.614
L776.963 331.856
L777.162 284.737
L777.361 297.444
L777.561 336.108
L777.76 348.581
L777.76 348.581" style="fill:none;stroke:#000000;stroke-linecap:square;"/>
   </g>
   <g id="patch_3">
    <path d="
M108 50.4
L777.6 50.4" style="fill:none;stroke:#000000;stroke-linecap:square;stroke-linejoin:miter;"/>
   </g>
   <g id="patch_4">
    <path d="
M777.6 441
L777.6 50.4" style="fill:none;stroke:#000000;stroke-linecap:square;stroke-linejoin:miter;"/>
   </g>
   <g id="patch_5">
    <path d="
M108 441
L777.6 441" style="fill:none;stroke:#000000;stroke-linecap:square;stroke-linejoin:miter;"/>
   </g>
   <g id="patch_6">
    <path d="
M108 441
L108 50.4" style="fill:none;stroke:#000000;stroke-linecap:square;stroke-linejoin:miter;"/>
   </g>
   <g id="matplotlib.axis_1">
    <g id="xtick_1">
     <g id="line2d_2">
      <defs>
       <path d="
M0 0
L0 -4" id="m93b0483c22" style="stroke:#000000;stroke-width:0.5;"/>
      </defs>
      <g>
       <use style="stroke:#000000;stroke-width:0.5;" x="139.885714286" xlink:href="#m93b0483c22" y="441.0"/>
      </g>
     </g>
     <g id="line2d_3">
      <defs>
       <path d="
M0 0
L0 4" id="m741efc42ff" style="stroke:#000000;stroke-width:0.5;"/>
      </defs>
      <g>
       <use style="stroke:#000000;stroke-width:0.5;" x="139.885714286" xlink:href="#m741efc42ff" y="50.4"/>
      </g>
     </g>
     <g id="text_1">
      <!-- 5000 -->
      <defs>
       <path d="
M31.7812 66.4062
Q24.1719 66.4062 20.3281 58.9062
Q16.5 51.4219 16.5 36.375
Q16.5 21.3906 20.3281 13.8906
Q24.1719 6.39062 31.7812 6.39062
Q39.4531 6.39062 43.2812 13.8906
Q47.125 21.3906 47.125 36.375
Q47.125 51.4219 43.2812 58.9062
Q39.4531 66.4062 31.7812 66.4062
M31.7812 74.2188
Q44.0469 74.2188 50.5156 64.5156
Q56.9844 54.8281 56.9844 36.375
Q56.9844 17.9688 50.5156 8.26562
Q44.0469 -1.42188 31.7812 -1.42188
Q19.5312 -1.42188 13.0625 8.26562
Q6.59375 17.9688 6.59375 36.375
Q6.59375 54.8281 13.0625 64.5156
Q19.5312 74.2188 31.7812 74.2188" id="BitstreamVeraSans-Roman-30"/>
       <path d="
M10.7969 72.9062
L49.5156 72.9062
L49.5156 64.5938
L19.8281 64.5938
L19.8281 46.7344
Q21.9688 47.4688 24.1094 47.8281
Q26.2656 48.1875 28.4219 48.1875
Q40.625 48.1875 47.75 41.5
Q54.8906 34.8125 54.8906 23.3906
Q54.8906 11.625 47.5625 5.09375
Q40.2344 -1.42188 26.9062 -1.42188
Q22.3125 -1.42188 17.5469 -0.640625
Q12.7969 0.140625 7.71875 1.70312
L7.71875 11.625
Q12.1094 9.23438 16.7969 8.0625
Q21.4844 6.89062 26.7031 6.89062
Q35.1562 6.89062 40.0781 11.3281
Q45.0156 15.7656 45.0156 23.3906
Q45.0156 31 40.0781 35.4375
Q35.1562 39.8906 26.7031 39.8906
Q22.75 39.8906 18.8125 39.0156
Q14.8906 38.1406 10.7969 36.2812
z
" id="BitstreamVeraSans-Roman-35"/>
      </defs>
      <g transform="translate(113.470245536 461.7165625)scale(0.22 -0.22)">
       <use xlink:href="#BitstreamVeraSans-Roman-35"/>
       <use x="63.623046875" xlink:href="#BitstreamVeraSans-Roman-30"/>
       <use x="127.24609375" xlink:href="#BitstreamVeraSans-Roman-30"/>
       <use x="190.869140625" xlink:href="#BitstreamVeraSans-Roman-30"/>
      </g>
     </g>
    </g>
    <g id="xtick_2">
     <g id="line2d_4">
      <g>
       <use style="stroke:#000000;stroke-width:0.5;" x="219.6" xlink:href="#m93b0483c22" y="441.0"/>
      </g>
     </g>
     <g id="line2d_5">
      <g>
       <use style="stroke:#000000;stroke-width:0.5;" x="219.6" xlink:href="#m741efc42ff" y="50.4"/>
      </g>
     </g>
     <g id="text_2">
      <!-- 5500 -->
      <g transform="translate(193.18453125 461.7165625)scale(0.22 -0.22)">
       <use xlink:href="#BitstreamVeraSans-Roman-35"/>
       <use x="63.623046875" xlink:href="#BitstreamVeraSans-Roman-35"/>
       <use x="127.24609375" xlink:href="#BitstreamVeraSans-Roman-30"/>
       <use x="190.869140625" xlink:href="#BitstreamVeraSans-Roman-30"/>
      </g>
     </g>
    </g>
    <g id="xtick_3">
     <g id="line2d_6">
      <g>
       <use style="stroke:#000000;stroke-width:0.5;" x="299.314285714" xlink:href="#m93b0483c22" y="441.0"/>
      </g>
     </g>
     <g id="line2d_7">
      <g>
       <use style="stroke:#000000;stroke-width:0.5;" x="299.314285714" xlink:href="#m741efc42ff" y="50.4"/>
      </g>
     </g>
     <g id="text_3">
      <!-- 6000 -->
      <defs>
       <path d="
M33.0156 40.375
Q26.375 40.375 22.4844 35.8281
Q18.6094 31.2969 18.6094 23.3906
Q18.6094 15.5312 22.4844 10.9531
Q26.375 6.39062 33.0156 6.39062
Q39.6562 6.39062 43.5312 10.9531
Q47.4062 15.5312 47.4062 23.3906
Q47.4062 31.2969 43.5312 35.8281
Q39.6562 40.375 33.0156 40.375
M52.5938 71.2969
L52.5938 62.3125
Q48.875 64.0625 45.0938 64.9844
Q41.3125 65.9219 37.5938 65.9219
Q27.8281 65.9219 22.6719 59.3281
Q17.5312 52.7344 16.7969 39.4062
Q19.6719 43.6562 24.0156 45.9219
Q28.375 48.1875 33.5938 48.1875
Q44.5781 48.1875 50.9531 41.5156
Q57.3281 34.8594 57.3281 23.3906
Q57.3281 12.1562 50.6875 5.35938
Q44.0469 -1.42188 33.0156 -1.42188
Q20.3594 -1.42188 13.6719 8.26562
Q6.98438 17.9688 6.98438 36.375
Q6.98438 53.6562 15.1875 63.9375
Q23.3906 74.2188 37.2031 74.2188
Q40.9219 74.2188 44.7031 73.4844
Q48.4844 72.75 52.5938 71.2969" id="BitstreamVeraSans-Roman-36"/>
      </defs>
      <g transform="translate(272.818035714 461.7165625)scale(0.22 -0.22)">
       <use xlink:href="#BitstreamVeraSans-Roman-36"/>
       <use x="63.623046875" xlink:href="#BitstreamVeraSans-Roman-30"/>
       <use x="127.24609375" xlink:href="#BitstreamVeraSans-Roman-30"/>
       <use x="190.869140625" xlink:href="#BitstreamVeraSans-Roman-30"/>
      </g>
     </g>
    </g>
    <g id="xtick_4">
     <g id="line2d_8">
      <g>
       <use style="stroke:#000000;stroke-width:0.5;" x="379.028571429" xlink:href="#m93b0483c22" y="441.0"/>
      </g>
     </g>
     <g id="line2d_9">
      <g>
       <use style="stroke:#000000;stroke-width:0.5;" x="379.028571429" xlink:href="#m741efc42ff" y="50.4"/>
      </g>
     </g>
     <g id="text_4">
      <!-- 6500 -->
      <g transform="translate(352.532321429 461.7165625)scale(0.22 -0.22)">
       <use xlink:href="#BitstreamVeraSans-Roman-36"/>
       <use x="63.623046875" xlink:href="#BitstreamVeraSans-Roman-35"/>
       <use x="127.24609375" xlink:href="#BitstreamVeraSans-Roman-30"/>
       <use x="190.869140625" xlink:href="#BitstreamVeraSans-Roman-30"/>
      </g>
     </g>
    </g>
    <g id="xtick_5">
     <g id="line2d_10">
      <g>
       <use style="stroke:#000000;stroke-width:0.5;" x="458.742857143" xlink:href="#m93b0483c22" y="441.0"/>
      </g>
     </g>
     <g id="line2d_11">
      <g>
       <use style="stroke:#000000;stroke-width:0.5;" x="458.742857143" xlink:href="#m741efc42ff" y="50.4"/>
      </g>
     </g>
     <g id="text_5">
      <!-- 7000 -->
      <defs>
       <path d="
M8.20312 72.9062
L55.0781 72.9062
L55.0781 68.7031
L28.6094 0
L18.3125 0
L43.2188 64.5938
L8.20312 64.5938
z
" id="BitstreamVeraSans-Roman-37"/>
      </defs>
      <g transform="translate(432.380669643 461.7165625)scale(0.22 -0.22)">
       <use xlink:href="#BitstreamVeraSans-Roman-37"/>
       <use x="63.623046875" xlink:href="#BitstreamVeraSans-Roman-30"/>
       <use x="127.24609375" xlink:href="#BitstreamVeraSans-Roman-30"/>
       <use x="190.869140625" xlink:href="#BitstreamVeraSans-Roman-30"/>
      </g>
     </g>
    </g>
    <g id="xtick_6">
     <g id="line2d_12">
      <g>
       <use style="stroke:#000000;stroke-width:0.5;" x="538.457142857" xlink:href="#m93b0483c22" y="441.0"/>
      </g>
     </g>
     <g id="line2d_13">
      <g>
       <use style="stroke:#000000;stroke-width:0.5;" x="538.457142857" xlink:href="#m741efc42ff" y="50.4"/>
      </g>
     </g>
     <g id="text_6">
      <!-- 7500 -->
      <g transform="translate(512.094955357 461.7165625)scale(0.22 -0.22)">
       <use xlink:href="#BitstreamVeraSans-Roman-37"/>
       <use x="63.623046875" xlink:href="#BitstreamVeraSans-Roman-35"/>
       <use x="127.24609375" xlink:href="#BitstreamVeraSans-Roman-30"/>
       <use x="190.869140625" xlink:href="#BitstreamVeraSans-Roman-30"/>
      </g>
     </g>
    </g>
    <g id="xtick_7">
     <g id="line2d_14">
      <g>
       <use style="stroke:#000000;stroke-width:0.5;" x="618.171428571" xlink:href="#m93b0483c22" y="441.0"/>
      </g>
     </g>
     <g id="line2d_15">
      <g>
       <use style="stroke:#000000;stroke-width:0.5;" x="618.171428571" xlink:href="#m741efc42ff" y="50.4"/>
      </g>
     </g>
     <g id="text_7">
      <!-- 8000 -->
      <defs>
       <path d="
M31.7812 34.625
Q24.75 34.625 20.7188 30.8594
Q16.7031 27.0938 16.7031 20.5156
Q16.7031 13.9219 20.7188 10.1562
Q24.75 6.39062 31.7812 6.39062
Q38.8125 6.39062 42.8594 10.1719
Q46.9219 13.9688 46.9219 20.5156
Q46.9219 27.0938 42.8906 30.8594
Q38.875 34.625 31.7812 34.625
M21.9219 38.8125
Q15.5781 40.375 12.0312 44.7188
Q8.5 49.0781 8.5 55.3281
Q8.5 64.0625 14.7188 69.1406
Q20.9531 74.2188 31.7812 74.2188
Q42.6719 74.2188 48.875 69.1406
Q55.0781 64.0625 55.0781 55.3281
Q55.0781 49.0781 51.5312 44.7188
Q48 40.375 41.7031 38.8125
Q48.8281 37.1562 52.7969 32.3125
Q56.7812 27.4844 56.7812 20.5156
Q56.7812 9.90625 50.3125 4.23438
Q43.8438 -1.42188 31.7812 -1.42188
Q19.7344 -1.42188 13.25 4.23438
Q6.78125 9.90625 6.78125 20.5156
Q6.78125 27.4844 10.7812 32.3125
Q14.7969 37.1562 21.9219 38.8125
M18.3125 54.3906
Q18.3125 48.7344 21.8438 45.5625
Q25.3906 42.3906 31.7812 42.3906
Q38.1406 42.3906 41.7188 45.5625
Q45.3125 48.7344 45.3125 54.3906
Q45.3125 60.0625 41.7188 63.2344
Q38.1406 66.4062 31.7812 66.4062
Q25.3906 66.4062 21.8438 63.2344
Q18.3125 60.0625 18.3125 54.3906" id="BitstreamVeraSans-Roman-38"/>
      </defs>
      <g transform="translate(591.652834821 461.7165625)scale(0.22 -0.22)">
       <use xlink:href="#BitstreamVeraSans-Roman-38"/>
       <use x="63.623046875" xlink:href="#BitstreamVeraSans-Roman-30"/>
       <use x="127.24609375" xlink:href="#BitstreamVeraSans-Roman-30"/>
       <use x="190.869140625" xlink:href="#BitstreamVeraSans-Roman-30"/>
      </g>
     </g>
    </g>
    <g id="xtick_8">
     <g id="line2d_16">
      <g>
       <use style="stroke:#000000;stroke-width:0.5;" x="697.885714286" xlink:href="#m93b0483c22" y="441.0"/>
      </g>
     </g>
     <g id="line2d_17">
      <g>
       <use style="stroke:#000000;stroke-width:0.5;" x="697.885714286" xlink:href="#m741efc42ff" y="50.4"/>
      </g>
     </g>
     <g id="text_8">
      <!-- 8500 -->
      <g transform="translate(671.367120536 461.7165625)scale(0.22 -0.22)">
       <use xlink:href="#BitstreamVeraSans-Roman-38"/>
       <use x="63.623046875" xlink:href="#BitstreamVeraSans-Roman-35"/>
       <use x="127.24609375" xlink:href="#BitstreamVeraSans-Roman-30"/>
       <use x="190.869140625" xlink:href="#BitstreamVeraSans-Roman-30"/>
      </g>
     </g>
    </g>
    <g id="xtick_9">
     <g id="line2d_18">
      <g>
       <use style="stroke:#000000;stroke-width:0.5;" x="777.6" xlink:href="#m93b0483c22" y="441.0"/>
      </g>
     </g>
     <g id="line2d_19">
      <g>
       <use style="stroke:#000000;stroke-width:0.5;" x="777.6" xlink:href="#m741efc42ff" y="50.4"/>
      </g>
     </g>
     <g id="text_9">
      <!-- 9000 -->
      <defs>
       <path d="
M10.9844 1.51562
L10.9844 10.5
Q14.7031 8.73438 18.5 7.8125
Q22.3125 6.89062 25.9844 6.89062
Q35.75 6.89062 40.8906 13.4531
Q46.0469 20.0156 46.7812 33.4062
Q43.9531 29.2031 39.5938 26.9531
Q35.25 24.7031 29.9844 24.7031
Q19.0469 24.7031 12.6719 31.3125
Q6.29688 37.9375 6.29688 49.4219
Q6.29688 60.6406 12.9375 67.4219
Q19.5781 74.2188 30.6094 74.2188
Q43.2656 74.2188 49.9219 64.5156
Q56.5938 54.8281 56.5938 36.375
Q56.5938 19.1406 48.4062 8.85938
Q40.2344 -1.42188 26.4219 -1.42188
Q22.7031 -1.42188 18.8906 -0.6875
Q15.0938 0.046875 10.9844 1.51562
M30.6094 32.4219
Q37.25 32.4219 41.125 36.9531
Q45.0156 41.5 45.0156 49.4219
Q45.0156 57.2812 41.125 61.8438
Q37.25 66.4062 30.6094 66.4062
Q23.9688 66.4062 20.0938 61.8438
Q16.2188 57.2812 16.2188 49.4219
Q16.2188 41.5 20.0938 36.9531
Q23.9688 32.4219 30.6094 32.4219" id="BitstreamVeraSans-Roman-39"/>
      </defs>
      <g transform="translate(751.028125 461.7165625)scale(0.22 -0.22)">
       <use xlink:href="#BitstreamVeraSans-Roman-39"/>
       <use x="63.623046875" xlink:href="#BitstreamVeraSans-Roman-30"/>
       <use x="127.24609375" xlink:href="#BitstreamVeraSans-Roman-30"/>
       <use x="190.869140625" xlink:href="#BitstreamVeraSans-Roman-30"/>
      </g>
     </g>
    </g>
    <g id="text_10">
     <!-- Wavelength ($\AA$) -->
     <defs>
      <path id="BitstreamVeraSans-Roman-20"/>
      <path d="
M14.0938 18.5938
L34.5938 67.2969
Q30.9062 67.7031 28.4531 70.5
Q26 73.2969 26 77.2031
Q26 81.2969 28.9531 84.1875
Q31.9062 87.0938 36.0938 87.0938
Q40.0938 87.0938 43 84.1406
Q45.9062 81.2031 45.9062 77.0938
Q45.9062 73.2031 43.2969 70.3906
Q40.7031 67.5938 36.7969 67.2031
L61.2969 11.0938
Q63.5 5.90625 65.25 4.09375
Q67 2.29688 70.7031 1.90625
L70.7031 0
L45.2031 0
L45.2031 1.90625
Q49.2031 1.90625 50.7031 2.79688
Q52.0938 3.5 52.0938 5.20312
Q52.0938 7.79688 50.2031 12.2031
L46.0938 21.5938
L19.9062 21.5938
L15.2969 10.2031
Q14.4062 7.90625 14.4062 6
Q14.4062 3.70312 16.0469 2.79688
Q17.7031 1.90625 21.4062 1.90625
L21.4062 0
L1.5 0
L1.5 1.90625
Q5.70312 2.29688 7.59375 4.9375
Q9.5 7.59375 14.0938 18.5938
M42.5 77.2031
Q42.5 79.9062 40.5469 81.7969
Q38.5938 83.7031 35.7969 83.7031
Q33.2031 83.7031 31.2969 81.75
Q29.4062 79.7969 29.4062 77.2031
Q29.4062 74.4062 31.2969 72.5
Q33.2031 70.5938 35.7969 70.5938
Q38.5938 70.5938 40.5469 72.5
Q42.5 74.4062 42.5 77.2031
M44.7031 25.7031
L33.0938 53.2031
L21.5938 25.7031
z
" id="STIXGeneral-Regular-212b"/>
      <path d="
M54.8906 33.0156
L54.8906 0
L45.9062 0
L45.9062 32.7188
Q45.9062 40.4844 42.875 44.3281
Q39.8438 48.1875 33.7969 48.1875
Q26.5156 48.1875 22.3125 43.5469
Q18.1094 38.9219 18.1094 30.9062
L18.1094 0
L9.07812 0
L9.07812 54.6875
L18.1094 54.6875
L18.1094 46.1875
Q21.3438 51.125 25.7031 53.5625
Q30.0781 56 35.7969 56
Q45.2188 56 50.0469 50.1719
Q54.8906 44.3438 54.8906 33.0156" id="BitstreamVeraSans-Roman-6e"/>
      <path d="
M31 75.875
Q24.4688 64.6562 21.2812 53.6562
Q18.1094 42.6719 18.1094 31.3906
Q18.1094 20.125 21.3125 9.0625
Q24.5156 -2 31 -13.1875
L23.1875 -13.1875
Q15.875 -1.70312 12.2344 9.375
Q8.59375 20.4531 8.59375 31.3906
Q8.59375 42.2812 12.2031 53.3125
Q15.8281 64.3594 23.1875 75.875
z
" id="BitstreamVeraSans-Roman-28"/>
      <path d="
M9.42188 75.9844
L18.4062 75.9844
L18.4062 0
L9.42188 0
z
" id="BitstreamVeraSans-Roman-6c"/>
      <path d="
M56.2031 29.5938
L56.2031 25.2031
L14.8906 25.2031
Q15.4844 15.9219 20.4844 11.0625
Q25.4844 6.20312 34.4219 6.20312
Q39.5938 6.20312 44.4531 7.46875
Q49.3125 8.73438 54.1094 11.2812
L54.1094 2.78125
Q49.2656 0.734375 44.1875 -0.34375
Q39.1094 -1.42188 33.8906 -1.42188
Q20.7969 -1.42188 13.1562 6.1875
Q5.51562 13.8125 5.51562 26.8125
Q5.51562 40.2344 12.7656 48.1094
Q20.0156 56 32.3281 56
Q43.3594 56 49.7812 48.8906
Q56.2031 41.7969 56.2031 29.5938
M47.2188 32.2344
Q47.125 39.5938 43.0938 43.9844
Q39.0625 48.3906 32.4219 48.3906
Q24.9062 48.3906 20.3906 44.1406
Q15.875 39.8906 15.1875 32.1719
z
" id="BitstreamVeraSans-Roman-65"/>
      <path d="
M54.8906 33.0156
L54.8906 0
L45.9062 0
L45.9062 32.7188
Q45.9062 40.4844 42.875 44.3281
Q39.8438 48.1875 33.7969 48.1875
Q26.5156 48.1875 22.3125 43.5469
Q18.1094 38.9219 18.1094 30.9062
L18.1094 0
L9.07812 0
L9.07812 75.9844
L18.1094 75.9844
L18.1094 46.1875
Q21.3438 51.125 25.7031 53.5625
Q30.0781 56 35.7969 56
Q45.2188 56 50.0469 50.1719
Q54.8906 44.3438 54.8906 33.0156" id="BitstreamVeraSans-Roman-68"/>
      <path d="
M3.32812 72.9062
L13.2812 72.9062
L28.6094 11.2812
L43.8906 72.9062
L54.9844 72.9062
L70.3125 11.2812
L85.5938 72.9062
L95.6094 72.9062
L77.2969 0
L64.8906 0
L49.5156 63.2812
L33.9844 0
L21.5781 0
z
" id="BitstreamVeraSans-Roman-57"/>
      <path d="
M2.98438 54.6875
L12.5 54.6875
L29.5938 8.79688
L46.6875 54.6875
L56.2031 54.6875
L35.6875 0
L23.4844 0
z
" id="BitstreamVeraSans-Roman-76"/>
      <path d="
M45.4062 27.9844
Q45.4062 37.75 41.375 43.1094
Q37.3594 48.4844 30.0781 48.4844
Q22.8594 48.4844 18.8281 43.1094
Q14.7969 37.75 14.7969 27.9844
Q14.7969 18.2656 18.8281 12.8906
Q22.8594 7.51562 30.0781 7.51562
Q37.3594 7.51562 41.375 12.8906
Q45.4062 18.2656 45.4062 27.9844
M54.3906 6.78125
Q54.3906 -7.17188 48.1875 -13.9844
Q42 -20.7969 29.2031 -20.7969
Q24.4688 -20.7969 20.2656 -20.0938
Q16.0625 -19.3906 12.1094 -17.9219
L12.1094 -9.1875
Q16.0625 -11.3281 19.9219 -12.3438
Q23.7812 -13.375 27.7812 -13.375
Q36.625 -13.375 41.0156 -8.76562
Q45.4062 -4.15625 45.4062 5.17188
L45.4062 9.625
Q42.625 4.78125 38.2812 2.39062
Q33.9375 0 27.875 0
Q17.8281 0 11.6719 7.65625
Q5.51562 15.3281 5.51562 27.9844
Q5.51562 40.6719 11.6719 48.3281
Q17.8281 56 27.875 56
Q33.9375 56 38.2812 53.6094
Q42.625 51.2188 45.4062 46.3906
L45.4062 54.6875
L54.3906 54.6875
z
" id="BitstreamVeraSans-Roman-67"/>
      <path d="
M34.2812 27.4844
Q23.3906 27.4844 19.1875 25
Q14.9844 22.5156 14.9844 16.5
Q14.9844 11.7188 18.1406 8.90625
Q21.2969 6.10938 26.7031 6.10938
Q34.1875 6.10938 38.7031 11.4062
Q43.2188 16.7031 43.2188 25.4844
L43.2188 27.4844
z

M52.2031 31.2031
L52.2031 0
L43.2188 0
L43.2188 8.29688
Q40.1406 3.32812 35.5469 0.953125
Q30.9531 -1.42188 24.3125 -1.42188
Q15.9219 -1.42188 10.9531 3.29688
Q6 8.01562 6 15.9219
Q6 25.1406 12.1719 29.8281
Q18.3594 34.5156 30.6094 34.5156
L43.2188 34.5156
L43.2188 35.4062
Q43.2188 41.6094 39.1406 45
Q35.0625 48.3906 27.6875 48.3906
Q23 48.3906 18.5469 47.2656
Q14.1094 46.1406 10.0156 43.8906
L10.0156 52.2031
Q14.9375 54.1094 19.5781 55.0469
Q24.2188 56 28.6094 56
Q40.4844 56 46.3438 49.8438
Q52.2031 43.7031 52.2031 31.2031" id="BitstreamVeraSans-Roman-61"/>
      <path d="
M18.3125 70.2188
L18.3125 54.6875
L36.8125 54.6875
L36.8125 47.7031
L18.3125 47.7031
L18.3125 18.0156
Q18.3125 11.3281 20.1406 9.42188
Q21.9688 7.51562 27.5938 7.51562
L36.8125 7.51562
L36.8125 0
L27.5938 0
Q17.1875 0 13.2344 3.875
Q9.28125 7.76562 9.28125 18.0156
L9.28125 47.7031
L2.6875 47.7031
L2.6875 54.6875
L9.28125 54.6875
L9.28125 70.2188
z
" id="BitstreamVeraSans-Roman-74"/>
      <path d="
M8.01562 75.875
L15.8281 75.875
Q23.1406 64.3594 26.7812 53.3125
Q30.4219 42.2812 30.4219 31.3906
Q30.4219 20.4531 26.7812 9.375
Q23.1406 -1.70312 15.8281 -13.1875
L8.01562 -13.1875
Q14.5 -2 17.7031 9.0625
Q20.9062 20.125 20.9062 31.3906
Q20.9062 42.6719 17.7031 53.6562
Q14.5 64.6562 8.01562 75.875" id="BitstreamVeraSans-Roman-29"/>
     </defs>
     <g transform="translate(325.5 497.691875)scale(0.3 -0.3)">
      <use transform="translate(0.0 0.90625)" xlink:href="#BitstreamVeraSans-Roman-57"/>
      <use transform="translate(98.876953125 0.90625)" xlink:href="#BitstreamVeraSans-Roman-61"/>
      <use transform="translate(160.15625 0.90625)" xlink:href="#BitstreamVeraSans-Roman-76"/>
      <use transform="translate(219.3359375 0.90625)" xlink:href="#BitstreamVeraSans-Roman-65"/>
      <use transform="translate(280.859375 0.90625)" xlink:href="#BitstreamVeraSans-Roman-6c"/>
      <use transform="translate(308.642578125 0.90625)" xlink:href="#BitstreamVeraSans-Roman-65"/>
      <use transform="translate(370.166015625 0.90625)" xlink:href="#BitstreamVeraSans-Roman-6e"/>
      <use transform="translate(433.544921875 0.90625)" xlink:href="#BitstreamVeraSans-Roman-67"/>
      <use transform="translate(497.021484375 0.90625)" xlink:href="#BitstreamVeraSans-Roman-74"/>
      <use transform="translate(536.23046875 0.90625)" xlink:href="#BitstreamVeraSans-Roman-68"/>
      <use transform="translate(599.609375 0.90625)" xlink:href="#BitstreamVeraSans-Roman-20"/>
      <use transform="translate(631.396484375 0.90625)" xlink:href="#BitstreamVeraSans-Roman-28"/>
      <use transform="translate(670.41015625 0.90625)" xlink:href="#STIXGeneral-Regular-212b"/>
      <use transform="translate(742.610137939 0.90625)" xlink:href="#BitstreamVeraSans-Roman-29"/>
     </g>
    </g>
   </g>
   <g id="matplotlib.axis_2">
    <g id="ytick_1">
     <g id="line2d_20">
      <defs>
       <path d="
M0 0
L4 0" id="m728421d6d4" style="stroke:#000000;stroke-width:0.5;"/>
      </defs>
      <g>
       <use style="stroke:#000000;stroke-width:0.5;" x="108.0" xlink:href="#m728421d6d4" y="441.0"/>
      </g>
     </g>
     <g id="line2d_21">
      <defs>
       <path d="
M0 0
L-4 0" id="mcb0005524f" style="stroke:#000000;stroke-width:0.5;"/>
      </defs>
      <g>
       <use style="stroke:#000000;stroke-width:0.5;" x="777.6" xlink:href="#mcb0005524f" y="441.0"/>
      </g>
     </g>
     <g id="text_11">
      <!-- 3000 -->
      <defs>
       <path d="
M40.5781 39.3125
Q47.6562 37.7969 51.625 33
Q55.6094 28.2188 55.6094 21.1875
Q55.6094 10.4062 48.1875 4.48438
Q40.7656 -1.42188 27.0938 -1.42188
Q22.5156 -1.42188 17.6562 -0.515625
Q12.7969 0.390625 7.625 2.20312
L7.625 11.7188
Q11.7188 9.32812 16.5938 8.10938
Q21.4844 6.89062 26.8125 6.89062
Q36.0781 6.89062 40.9375 10.5469
Q45.7969 14.2031 45.7969 21.1875
Q45.7969 27.6406 41.2812 31.2656
Q36.7656 34.9062 28.7188 34.9062
L20.2188 34.9062
L20.2188 43.0156
L29.1094 43.0156
Q36.375 43.0156 40.2344 45.9219
Q44.0938 48.8281 44.0938 54.2969
Q44.0938 59.9062 40.1094 62.9062
Q36.1406 65.9219 28.7188 65.9219
Q24.6562 65.9219 20.0156 65.0312
Q15.375 64.1562 9.8125 62.3125
L9.8125 71.0938
Q15.4375 72.6562 20.3438 73.4375
Q25.25 74.2188 29.5938 74.2188
Q40.8281 74.2188 47.3594 69.1094
Q53.9062 64.0156 53.9062 55.3281
Q53.9062 49.2656 50.4375 45.0938
Q46.9688 40.9219 40.5781 39.3125" id="BitstreamVeraSans-Roman-33"/>
      </defs>
      <g transform="translate(79.9765625 443.759375)scale(0.1 -0.1)">
       <use xlink:href="#BitstreamVeraSans-Roman-33"/>
       <use x="63.623046875" xlink:href="#BitstreamVeraSans-Roman-30"/>
       <use x="127.24609375" xlink:href="#BitstreamVeraSans-Roman-30"/>
       <use x="190.869140625" xlink:href="#BitstreamVeraSans-Roman-30"/>
      </g>
     </g>
    </g>
    <g id="ytick_2">
     <g id="line2d_22">
      <g>
       <use style="stroke:#000000;stroke-width:0.5;" x="108.0" xlink:href="#m728421d6d4" y="385.2"/>
      </g>
     </g>
     <g id="line2d_23">
      <g>
       <use style="stroke:#000000;stroke-width:0.5;" x="777.6" xlink:href="#mcb0005524f" y="385.2"/>
      </g>
     </g>
     <g id="text_12">
      <!-- 4000 -->
      <defs>
       <path d="
M37.7969 64.3125
L12.8906 25.3906
L37.7969 25.3906
z

M35.2031 72.9062
L47.6094 72.9062
L47.6094 25.3906
L58.0156 25.3906
L58.0156 17.1875
L47.6094 17.1875
L47.6094 0
L37.7969 0
L37.7969 17.1875
L4.89062 17.1875
L4.89062 26.7031
z
" id="BitstreamVeraSans-Roman-34"/>
      </defs>
      <g transform="translate(79.703125 387.959375)scale(0.1 -0.1)">
       <use xlink:href="#BitstreamVeraSans-Roman-34"/>
       <use x="63.623046875" xlink:href="#BitstreamVeraSans-Roman-30"/>
       <use x="127.24609375" xlink:href="#BitstreamVeraSans-Roman-30"/>
       <use x="190.869140625" xlink:href="#BitstreamVeraSans-Roman-30"/>
      </g>
     </g>
    </g>
    <g id="ytick_3">
     <g id="line2d_24">
      <g>
       <use style="stroke:#000000;stroke-width:0.5;" x="108.0" xlink:href="#m728421d6d4" y="329.4"/>
      </g>
     </g>
     <g id="line2d_25">
      <g>
       <use style="stroke:#000000;stroke-width:0.5;" x="777.6" xlink:href="#mcb0005524f" y="329.4"/>
      </g>
     </g>
     <g id="text_13">
      <!-- 5000 -->
      <g transform="translate(79.9859375 332.159375)scale(0.1 -0.1)">
       <use xlink:href="#BitstreamVeraSans-Roman-35"/>
       <use x="63.623046875" xlink:href="#BitstreamVeraSans-Roman-30"/>
       <use x="127.24609375" xlink:href="#BitstreamVeraSans-Roman-30"/>
       <use x="190.869140625" xlink:href="#BitstreamVeraSans-Roman-30"/>
      </g>
     </g>
    </g>
    <g id="ytick_4">
     <g id="line2d_26">
      <g>
       <use style="stroke:#000000;stroke-width:0.5;" x="108.0" xlink:href="#m728421d6d4" y="273.6"/>
      </g>
     </g>
     <g id="line2d_27">
      <g>
       <use style="stroke:#000000;stroke-width:0.5;" x="777.6" xlink:href="#mcb0005524f" y="273.6"/>
      </g>
     </g>
     <g id="text_14">
      <!-- 6000 -->
      <g transform="translate(79.9125 276.359375)scale(0.1 -0.1)">
       <use xlink:href="#BitstreamVeraSans-Roman-36"/>
       <use x="63.623046875" xlink:href="#BitstreamVeraSans-Roman-30"/>
       <use x="127.24609375" xlink:href="#BitstreamVeraSans-Roman-30"/>
       <use x="190.869140625" xlink:href="#BitstreamVeraSans-Roman-30"/>
      </g>
     </g>
    </g>
    <g id="ytick_5">
     <g id="line2d_28">
      <g>
       <use style="stroke:#000000;stroke-width:0.5;" x="108.0" xlink:href="#m728421d6d4" y="217.8"/>
      </g>
     </g>
     <g id="line2d_29">
      <g>
       <use style="stroke:#000000;stroke-width:0.5;" x="777.6" xlink:href="#mcb0005524f" y="217.8"/>
      </g>
     </g>
     <g id="text_15">
      <!-- 7000 -->
      <g transform="translate(80.034375 220.559375)scale(0.1 -0.1)">
       <use xlink:href="#BitstreamVeraSans-Roman-37"/>
       <use x="63.623046875" xlink:href="#BitstreamVeraSans-Roman-30"/>
       <use x="127.24609375" xlink:href="#BitstreamVeraSans-Roman-30"/>
       <use x="190.869140625" xlink:href="#BitstreamVeraSans-Roman-30"/>
      </g>
     </g>
    </g>
    <g id="ytick_6">
     <g id="line2d_30">
      <g>
       <use style="stroke:#000000;stroke-width:0.5;" x="108.0" xlink:href="#m728421d6d4" y="162.0"/>
      </g>
     </g>
     <g id="line2d_31">
      <g>
       <use style="stroke:#000000;stroke-width:0.5;" x="777.6" xlink:href="#mcb0005524f" y="162.0"/>
      </g>
     </g>
     <g id="text_16">
      <!-- 8000 -->
      <g transform="translate(79.8921875 164.759375)scale(0.1 -0.1)">
       <use xlink:href="#BitstreamVeraSans-Roman-38"/>
       <use x="63.623046875" xlink:href="#BitstreamVeraSans-Roman-30"/>
       <use x="127.24609375" xlink:href="#BitstreamVeraSans-Roman-30"/>
       <use x="190.869140625" xlink:href="#BitstreamVeraSans-Roman-30"/>
      </g>
     </g>
    </g>
    <g id="ytick_7">
     <g id="line2d_32">
      <g>
       <use style="stroke:#000000;stroke-width:0.5;" x="108.0" xlink:href="#m728421d6d4" y="106.2"/>
      </g>
     </g>
     <g id="line2d_33">
      <g>
       <use style="stroke:#000000;stroke-width:0.5;" x="777.6" xlink:href="#mcb0005524f" y="106.2"/>
      </g>
     </g>
     <g id="text_17">
      <!-- 9000 -->
      <g transform="translate(79.84375 108.959375)scale(0.1 -0.1)">
       <use xlink:href="#BitstreamVeraSans-Roman-39"/>
       <use x="63.623046875" xlink:href="#BitstreamVeraSans-Roman-30"/>
       <use x="127.24609375" xlink:href="#BitstreamVeraSans-Roman-30"/>
       <use x="190.869140625" xlink:href="#BitstreamVeraSans-Roman-30"/>
      </g>
     </g>
    </g>
    <g id="ytick_8">
     <g id="line2d_34">
      <g>
       <use style="stroke:#000000;stroke-width:0.5;" x="108.0" xlink:href="#m728421d6d4" y="50.4"/>
      </g>
     </g>
     <g id="line2d_35">
      <g>
       <use style="stroke:#000000;stroke-width:0.5;" x="777.6" xlink:href="#mcb0005524f" y="50.4"/>
      </g>
     </g>
     <g id="text_18">
      <!-- 10000 -->
      <defs>
       <path d="
M12.4062 8.29688
L28.5156 8.29688
L28.5156 63.9219
L10.9844 60.4062
L10.9844 69.3906
L28.4219 72.9062
L38.2812 72.9062
L38.2812 8.29688
L54.3906 8.29688
L54.3906 0
L12.4062 0
z
" id="BitstreamVeraSans-Roman-31"/>
      </defs>
      <g transform="translate(73.95 53.159375)scale(0.1 -0.1)">
       <use xlink:href="#BitstreamVeraSans-Roman-31"/>
       <use x="63.623046875" xlink:href="#BitstreamVeraSans-Roman-30"/>
       <use x="127.24609375" xlink:href="#BitstreamVeraSans-Roman-30"/>
       <use x="190.869140625" xlink:href="#BitstreamVeraSans-Roman-30"/>
       <use x="254.4921875" xlink:href="#BitstreamVeraSans-Roman-30"/>
      </g>
     </g>
    </g>
   </g>
   <g id="text_19">
    <!--       One Exposure Spectrum -->
    <defs>
     <path d="
M39.4062 66.2188
Q28.6562 66.2188 22.3281 58.2031
Q16.0156 50.2031 16.0156 36.375
Q16.0156 22.6094 22.3281 14.5938
Q28.6562 6.59375 39.4062 6.59375
Q50.1406 6.59375 56.4219 14.5938
Q62.7031 22.6094 62.7031 36.375
Q62.7031 50.2031 56.4219 58.2031
Q50.1406 66.2188 39.4062 66.2188
M39.4062 74.2188
Q54.7344 74.2188 63.9062 63.9375
Q73.0938 53.6562 73.0938 36.375
Q73.0938 19.1406 63.9062 8.85938
Q54.7344 -1.42188 39.4062 -1.42188
Q24.0312 -1.42188 14.8125 8.82812
Q5.60938 19.0938 5.60938 36.375
Q5.60938 53.6562 14.8125 63.9375
Q24.0312 74.2188 39.4062 74.2188" id="BitstreamVeraSans-Roman-4f"/>
     <path d="
M52 44.1875
Q55.375 50.25 60.0625 53.125
Q64.75 56 71.0938 56
Q79.6406 56 84.2812 50.0156
Q88.9219 44.0469 88.9219 33.0156
L88.9219 0
L79.8906 0
L79.8906 32.7188
Q79.8906 40.5781 77.0938 44.375
Q74.3125 48.1875 68.6094 48.1875
Q61.625 48.1875 57.5625 43.5469
Q53.5156 38.9219 53.5156 30.9062
L53.5156 0
L44.4844 0
L44.4844 32.7188
Q44.4844 40.625 41.7031 44.4062
Q38.9219 48.1875 33.1094 48.1875
Q26.2188 48.1875 22.1562 43.5312
Q18.1094 38.875 18.1094 30.9062
L18.1094 0
L9.07812 0
L9.07812 54.6875
L18.1094 54.6875
L18.1094 46.1875
Q21.1875 51.2188 25.4844 53.6094
Q29.7812 56 35.6875 56
Q41.6562 56 45.8281 52.9688
Q50 49.9531 52 44.1875" id="BitstreamVeraSans-Roman-6d"/>
     <path d="
M30.6094 48.3906
Q23.3906 48.3906 19.1875 42.75
Q14.9844 37.1094 14.9844 27.2969
Q14.9844 17.4844 19.1562 11.8438
Q23.3438 6.20312 30.6094 6.20312
Q37.7969 6.20312 41.9844 11.8594
Q46.1875 17.5312 46.1875 27.2969
Q46.1875 37.0156 41.9844 42.7031
Q37.7969 48.3906 30.6094 48.3906
M30.6094 56
Q42.3281 56 49.0156 48.375
Q55.7188 40.7656 55.7188 27.2969
Q55.7188 13.875 49.0156 6.21875
Q42.3281 -1.42188 30.6094 -1.42188
Q18.8438 -1.42188 12.1719 6.21875
Q5.51562 13.875 5.51562 27.2969
Q5.51562 40.7656 12.1719 48.375
Q18.8438 56 30.6094 56" id="BitstreamVeraSans-Roman-6f"/>
     <path d="
M9.8125 72.9062
L55.9062 72.9062
L55.9062 64.5938
L19.6719 64.5938
L19.6719 43.0156
L54.3906 43.0156
L54.3906 34.7188
L19.6719 34.7188
L19.6719 8.29688
L56.7812 8.29688
L56.7812 0
L9.8125 0
z
" id="BitstreamVeraSans-Roman-45"/>
     <path d="
M53.5156 70.5156
L53.5156 60.8906
Q47.9062 63.5781 42.9219 64.8906
Q37.9375 66.2188 33.2969 66.2188
Q25.25 66.2188 20.875 63.0938
Q16.5 59.9688 16.5 54.2031
Q16.5 49.3594 19.4062 46.8906
Q22.3125 44.4375 30.4219 42.9219
L36.375 41.7031
Q47.4062 39.5938 52.6562 34.2969
Q57.9062 29 57.9062 20.125
Q57.9062 9.51562 50.7969 4.04688
Q43.7031 -1.42188 29.9844 -1.42188
Q24.8125 -1.42188 18.9688 -0.25
Q13.1406 0.921875 6.89062 3.21875
L6.89062 13.375
Q12.8906 10.0156 18.6562 8.29688
Q24.4219 6.59375 29.9844 6.59375
Q38.4219 6.59375 43.0156 9.90625
Q47.6094 13.2344 47.6094 19.3906
Q47.6094 24.75 44.3125 27.7812
Q41.0156 30.8125 33.5 32.3281
L27.4844 33.5
Q16.4531 35.6875 11.5156 40.375
Q6.59375 45.0625 6.59375 53.4219
Q6.59375 63.0938 13.4062 68.6562
Q20.2188 74.2188 32.1719 74.2188
Q37.3125 74.2188 42.625 73.2812
Q47.9531 72.3594 53.5156 70.5156" id="BitstreamVeraSans-Roman-53"/>
     <path d="
M48.7812 52.5938
L48.7812 44.1875
Q44.9688 46.2969 41.1406 47.3438
Q37.3125 48.3906 33.4062 48.3906
Q24.6562 48.3906 19.8125 42.8438
Q14.9844 37.3125 14.9844 27.2969
Q14.9844 17.2812 19.8125 11.7344
Q24.6562 6.20312 33.4062 6.20312
Q37.3125 6.20312 41.1406 7.25
Q44.9688 8.29688 48.7812 10.4062
L48.7812 2.09375
Q45.0156 0.34375 40.9844 -0.53125
Q36.9688 -1.42188 32.4219 -1.42188
Q20.0625 -1.42188 12.7812 6.34375
Q5.51562 14.1094 5.51562 27.2969
Q5.51562 40.6719 12.8594 48.3281
Q20.2188 56 33.0156 56
Q37.1562 56 41.1094 55.1406
Q45.0625 54.2969 48.7812 52.5938" id="BitstreamVeraSans-Roman-63"/>
     <path d="
M54.8906 54.6875
L35.1094 28.0781
L55.9062 0
L45.3125 0
L29.3906 21.4844
L13.4844 0
L2.875 0
L24.125 28.6094
L4.6875 54.6875
L15.2812 54.6875
L29.7812 35.2031
L44.2812 54.6875
z
" id="BitstreamVeraSans-Roman-78"/>
     <path d="
M8.5 21.5781
L8.5 54.6875
L17.4844 54.6875
L17.4844 21.9219
Q17.4844 14.1562 20.5 10.2656
Q23.5312 6.39062 29.5938 6.39062
Q36.8594 6.39062 41.0781 11.0312
Q45.3125 15.6719 45.3125 23.6875
L45.3125 54.6875
L54.2969 54.6875
L54.2969 0
L45.3125 0
L45.3125 8.40625
Q42.0469 3.42188 37.7188 1
Q33.4062 -1.42188 27.6875 -1.42188
Q18.2656 -1.42188 13.375 4.4375
Q8.5 10.2969 8.5 21.5781" id="BitstreamVeraSans-Roman-75"/>
     <path d="
M41.1094 46.2969
Q39.5938 47.1719 37.8125 47.5781
Q36.0312 48 33.8906 48
Q26.2656 48 22.1875 43.0469
Q18.1094 38.0938 18.1094 28.8125
L18.1094 0
L9.07812 0
L9.07812 54.6875
L18.1094 54.6875
L18.1094 46.1875
Q20.9531 51.1719 25.4844 53.5781
Q30.0312 56 36.5312 56
Q37.4531 56 38.5781 55.875
Q39.7031 55.7656 41.0625 55.5156
z
" id="BitstreamVeraSans-Roman-72"/>
     <path d="
M44.2812 53.0781
L44.2812 44.5781
Q40.4844 46.5312 36.375 47.5
Q32.2812 48.4844 27.875 48.4844
Q21.1875 48.4844 17.8438 46.4375
Q14.5 44.3906 14.5 40.2812
Q14.5 37.1562 16.8906 35.375
Q19.2812 33.5938 26.5156 31.9844
L29.5938 31.2969
Q39.1562 29.25 43.1875 25.5156
Q47.2188 21.7812 47.2188 15.0938
Q47.2188 7.46875 41.1875 3.01562
Q35.1562 -1.42188 24.6094 -1.42188
Q20.2188 -1.42188 15.4531 -0.5625
Q10.6875 0.296875 5.42188 2
L5.42188 11.2812
Q10.4062 8.6875 15.2344 7.39062
Q20.0625 6.10938 24.8125 6.10938
Q31.1562 6.10938 34.5625 8.28125
Q37.9844 10.4531 37.9844 14.4062
Q37.9844 18.0625 35.5156 20.0156
Q33.0625 21.9688 24.7031 23.7812
L21.5781 24.5156
Q13.2344 26.2656 9.51562 29.9062
Q5.8125 33.5469 5.8125 39.8906
Q5.8125 47.6094 11.2812 51.7969
Q16.75 56 26.8125 56
Q31.7812 56 36.1719 55.2656
Q40.5781 54.5469 44.2812 53.0781" id="BitstreamVeraSans-Roman-73"/>
     <path d="
M18.1094 8.20312
L18.1094 -20.7969
L9.07812 -20.7969
L9.07812 54.6875
L18.1094 54.6875
L18.1094 46.3906
Q20.9531 51.2656 25.2656 53.625
Q29.5938 56 35.5938 56
Q45.5625 56 51.7812 48.0938
Q58.0156 40.1875 58.0156 27.2969
Q58.0156 14.4062 51.7812 6.48438
Q45.5625 -1.42188 35.5938 -1.42188
Q29.5938 -1.42188 25.2656 0.953125
Q20.9531 3.32812 18.1094 8.20312
M48.6875 27.2969
Q48.6875 37.2031 44.6094 42.8438
Q40.5312 48.4844 33.4062 48.4844
Q26.2656 48.4844 22.1875 42.8438
Q18.1094 37.2031 18.1094 27.2969
Q18.1094 17.3906 22.1875 11.75
Q26.2656 6.10938 33.4062 6.10938
Q40.5312 6.10938 44.6094 11.75
Q48.6875 17.3906 48.6875 27.2969" id="BitstreamVeraSans-Roman-70"/>
    </defs>
    <g transform="translate(233.26875 45.4)scale(0.3 -0.3)">
     <use xlink:href="#BitstreamVeraSans-Roman-20"/>
     <use x="31.787109375" xlink:href="#BitstreamVeraSans-Roman-20"/>
     <use x="63.57421875" xlink:href="#BitstreamVeraSans-Roman-20"/>
     <use x="95.361328125" xlink:href="#BitstreamVeraSans-Roman-20"/>
     <use x="127.1484375" xlink:href="#BitstreamVeraSans-Roman-20"/>
     <use x="158.935546875" xlink:href="#BitstreamVeraSans-Roman-20"/>
     <use x="190.72265625" xlink:href="#BitstreamVeraSans-Roman-4f"/>
     <use x="269.43359375" xlink:href="#BitstreamVeraSans-Roman-6e"/>
     <use x="332.8125" xlink:href="#BitstreamVeraSans-Roman-65"/>
     <use x="394.3359375" xlink:href="#BitstreamVeraSans-Roman-20"/>
     <use x="426.123046875" xlink:href="#BitstreamVeraSans-Roman-45"/>
     <use x="489.306640625" xlink:href="#BitstreamVeraSans-Roman-78"/>
     <use x="548.486328125" xlink:href="#BitstreamVeraSans-Roman-70"/>
     <use x="611.962890625" xlink:href="#BitstreamVeraSans-Roman-6f"/>
     <use x="673.14453125" xlink:href="#BitstreamVeraSans-Roman-73"/>
     <use x="725.244140625" xlink:href="#BitstreamVeraSans-Roman-75"/>
     <use x="788.623046875" xlink:href="#BitstreamVeraSans-Roman-72"/>
     <use x="827.486328125" xlink:href="#BitstreamVeraSans-Roman-65"/>
     <use x="889.009765625" xlink:href="#BitstreamVeraSans-Roman-20"/>
     <use x="920.796875" xlink:href="#BitstreamVeraSans-Roman-53"/>
     <use x="984.2734375" xlink:href="#BitstreamVeraSans-Roman-70"/>
     <use x="1047.75" xlink:href="#BitstreamVeraSans-Roman-65"/>
     <use x="1109.2734375" xlink:href="#BitstreamVeraSans-Roman-63"/>
     <use x="1164.25390625" xlink:href="#BitstreamVeraSans-Roman-74"/>
     <use x="1203.46289062" xlink:href="#BitstreamVeraSans-Roman-72"/>
     <use x="1244.57617188" xlink:href="#BitstreamVeraSans-Roman-75"/>
     <use x="1307.95507812" xlink:href="#BitstreamVeraSans-Roman-6d"/>
    </g>
   </g>
  </g>
  <g id="text_20">
   <!-- Flux (10$^{-20}$ erg s$^{-1}$ cm$^{-2} \AA^{-1}$) -->
   <defs>
    <path d="
M9.8125 72.9062
L51.7031 72.9062
L51.7031 64.5938
L19.6719 64.5938
L19.6719 43.1094
L48.5781 43.1094
L48.5781 34.8125
L19.6719 34.8125
L19.6719 0
L9.8125 0
z
" id="BitstreamVeraSans-Roman-46"/>
    <path d="
M9.28125 0
L9.28125 3.51562
Q21.7812 3.51562 21.7812 6.6875
L21.7812 59.1875
Q16.6094 56.6875 8.6875 56.6875
L8.6875 60.2031
Q20.9531 60.2031 27.2031 66.6094
L28.6094 66.6094
Q28.9531 66.6094 29.2656 66.3281
Q29.5938 66.0625 29.5938 65.7188
L29.5938 6.6875
Q29.5938 3.51562 42.0938 3.51562
L42.0938 0
z
" id="Cmr10-31"/>
    <path d="
M10.2031 23
Q9.375 23 8.82812 23.625
Q8.29688 24.2656 8.29688 25
Q8.29688 25.7344 8.82812 26.3594
Q9.375 27 10.2031 27
L67.5781 27
Q68.3594 27 68.875 26.3594
Q69.3906 25.7344 69.3906 25
Q69.3906 24.2656 68.875 23.625
Q68.3594 23 67.5781 23
z
" id="Cmsy10-a1"/>
    <path d="
M25 -2.20312
Q12.75 -2.20312 8.32812 7.875
Q3.90625 17.9688 3.90625 31.8906
Q3.90625 40.5781 5.48438 48.2344
Q7.07812 55.9062 11.7812 61.25
Q16.5 66.6094 25 66.6094
Q31.5938 66.6094 35.7812 63.375
Q39.9844 60.1562 42.1875 55.0469
Q44.3906 49.9531 45.1875 44.1094
Q46 38.2812 46 31.8906
Q46 23.2969 44.4062 15.7969
Q42.8281 8.29688 38.1875 3.04688
Q33.5469 -2.20312 25 -2.20312
M25 0.390625
Q30.5625 0.390625 33.2969 6.09375
Q36.0312 11.8125 36.6719 18.75
Q37.3125 25.6875 37.3125 33.5
Q37.3125 41.0156 36.6719 47.3594
Q36.0312 53.7188 33.3125 58.8594
Q30.6094 64.0156 25 64.0156
Q19.3438 64.0156 16.6094 58.8281
Q13.875 53.6562 13.2344 47.3281
Q12.5938 41.0156 12.5938 33.5
Q12.5938 27.9375 12.8594 23
Q13.1406 18.0625 14.3125 12.8125
Q15.4844 7.5625 18.0938 3.96875
Q20.7031 0.390625 25 0.390625" id="Cmr10-30"/>
    <path d="
M4.98438 0
L4.98438 2.6875
Q4.98438 2.9375 5.17188 3.21875
L20.7031 20.4062
Q24.2188 24.2188 26.4062 26.7969
Q28.6094 29.3906 30.75 32.7656
Q32.9062 36.1406 34.1562 39.625
Q35.4062 43.1094 35.4062 47.0156
Q35.4062 51.125 33.8906 54.8594
Q32.375 58.5938 29.375 60.8438
Q26.375 63.0938 22.125 63.0938
Q17.7812 63.0938 14.3125 60.4688
Q10.8438 57.8594 9.42188 53.7188
Q9.8125 53.8125 10.5 53.8125
Q12.75 53.8125 14.3281 52.2969
Q15.9219 50.7812 15.9219 48.3906
Q15.9219 46.0938 14.3281 44.5
Q12.75 42.9219 10.5 42.9219
Q8.15625 42.9219 6.5625 44.5469
Q4.98438 46.1875 4.98438 48.3906
Q4.98438 52.1562 6.39062 55.4375
Q7.8125 58.7344 10.4688 61.2969
Q13.1406 63.875 16.4844 65.2344
Q19.8281 66.6094 23.5781 66.6094
Q29.2969 66.6094 34.2188 64.1875
Q39.1562 61.7656 42.0312 57.3438
Q44.9219 52.9375 44.9219 47.0156
Q44.9219 42.6719 43.0156 38.7656
Q41.1094 34.8594 38.125 31.6562
Q35.1562 28.4688 30.5156 24.4062
Q25.875 20.3594 24.4219 19
L13.0938 8.10938
L22.7031 8.10938
Q29.7812 8.10938 34.5469 8.21875
Q39.3125 8.34375 39.5938 8.59375
Q40.7656 9.85938 42 17.8281
L44.9219 17.8281
L42.0938 0
z
" id="Cmr10-32"/>
   </defs>
   <g transform="translate(67.26 468.6)rotate(-90.0)scale(0.3 -0.3)">
    <use transform="translate(0.0 0.7890625)" xlink:href="#BitstreamVeraSans-Roman-46"/>
    <use transform="translate(57.51953125 0.7890625)" xlink:href="#BitstreamVeraSans-Roman-6c"/>
    <use transform="translate(85.302734375 0.7890625)" xlink:href="#BitstreamVeraSans-Roman-75"/>
    <use transform="translate(148.681640625 0.7890625)" xlink:href="#BitstreamVeraSans-Roman-78"/>
    <use transform="translate(207.861328125 0.7890625)" xlink:href="#BitstreamVeraSans-Roman-20"/>
    <use transform="translate(239.6484375 0.7890625)" xlink:href="#BitstreamVeraSans-Roman-28"/>
    <use transform="translate(278.662109375 0.7890625)" xlink:href="#BitstreamVeraSans-Roman-31"/>
    <use transform="translate(342.28515625 0.7890625)" xlink:href="#BitstreamVeraSans-Roman-30"/>
    <use transform="translate(405.908203125 43.3046875)scale(0.7)" xlink:href="#Cmsy10-a1"/>
    <use transform="translate(460.288085938 43.3046875)scale(0.7)" xlink:href="#Cmr10-32"/>
    <use transform="translate(495.288085938 43.3046875)scale(0.7)" xlink:href="#Cmr10-30"/>
    <use transform="translate(547.294335938 0.7890625)" xlink:href="#BitstreamVeraSans-Roman-20"/>
    <use transform="translate(579.081445313 0.7890625)" xlink:href="#BitstreamVeraSans-Roman-65"/>
    <use transform="translate(640.604882813 0.7890625)" xlink:href="#BitstreamVeraSans-Roman-72"/>
    <use transform="translate(681.718164063 0.7890625)" xlink:href="#BitstreamVeraSans-Roman-67"/>
    <use transform="translate(745.194726563 0.7890625)" xlink:href="#BitstreamVeraSans-Roman-20"/>
    <use transform="translate(776.981835938 0.7890625)" xlink:href="#BitstreamVeraSans-Roman-73"/>
    <use transform="translate(829.081445313 43.3046875)scale(0.7)" xlink:href="#Cmsy10-a1"/>
    <use transform="translate(883.461328125 43.3046875)scale(0.7)" xlink:href="#Cmr10-31"/>
    <use transform="translate(935.467578125 0.7890625)" xlink:href="#BitstreamVeraSans-Roman-20"/>
    <use transform="translate(967.2546875 0.7890625)" xlink:href="#BitstreamVeraSans-Roman-63"/>
    <use transform="translate(1022.23515625 0.7890625)" xlink:href="#BitstreamVeraSans-Roman-6d"/>
    <use transform="translate(1119.64726563 43.3046875)scale(0.7)" xlink:href="#Cmsy10-a1"/>
    <use transform="translate(1174.02714844 43.3046875)scale(0.7)" xlink:href="#Cmr10-32"/>
    <use transform="translate(1226.03339844 0.7890625)" xlink:href="#STIXGeneral-Regular-212b"/>
    <use transform="translate(1298.23338013 62.3734375)scale(0.7)" xlink:href="#Cmsy10-a1"/>
    <use transform="translate(1352.61326294 62.3734375)scale(0.7)" xlink:href="#Cmr10-31"/>
    <use transform="translate(1404.61951294 0.7890625)" xlink:href="#BitstreamVeraSans-Roman-29"/>
   </g>
  </g>
 </g>
 <defs>
  <clipPath id="p0c319213db">
   <rect height="390.6" width="669.6" x="108.0" y="50.4"/>
  </clipPath>
 </defs>
</svg>
