<?xml version="1.0" encoding="UTF-8" standalone="no"?>
<svg
   xmlns:dc="http://purl.org/dc/elements/1.1/"
   xmlns:cc="http://creativecommons.org/ns#"
   xmlns:rdf="http://www.w3.org/1999/02/22-rdf-syntax-ns#"
   xmlns:svg="http://www.w3.org/2000/svg"
   xmlns="http://www.w3.org/2000/svg"
   viewBox="0 0 294.56375 108.5925"
   height="408.5925"
   width="694.56375"
   xml:space="preserve"
   version="1.1"
   id="svg2"><metadata
     id="metadata8"><rdf:RDF><cc:Work
         rdf:about=""><dc:format>image/svg+xml</dc:format><dc:type
           rdf:resource="http://purl.org/dc/dcmitype/StillImage" /></cc:Work></rdf:RDF></metadata><defs
     id="defs6" /><g
     transform="matrix(1.25,0,0,-1.25,0,108.5925)"
     id="g10"><g
       transform="translate(0,86.675)"
       id="g12"><path
         id="path14"
         style="fill:none;stroke:#000000;stroke-width:0.398;stroke-linecap:butt;stroke-linejoin:miter;stroke-miterlimit:10;stroke-dasharray:none;stroke-opacity:1"
         d="M 0,0 235.651,0" /></g><g
       transform="translate(0,74.521)"
       id="g16"><path
         id="path18"
         style="fill:none;stroke:#000000;stroke-width:0.398;stroke-linecap:butt;stroke-linejoin:miter;stroke-miterlimit:10;stroke-dasharray:none;stroke-opacity:1"
         d="M 0,0 0,11.955" /></g><text
       id="text20"
       style="font-variant:normal;font-weight:normal;font-size:9.96259975px;font-family:CMBX10;-inkscape-font-specification:CMBX10;writing-mode:lr-tb;fill:#000000;fill-opacity:1;fill-rule:nonzero;stroke:none"
       transform="matrix(1,0,0,-1,6.147,78.107)"><tspan
         id="tspan22"
         y="0"
         x="0 8.2749357">CV</tspan></text>
<g
       transform="translate(29.39,74.521)"
       id="g24"><path
         id="path26"
         style="fill:none;stroke:#000000;stroke-width:0.398;stroke-linecap:butt;stroke-linejoin:miter;stroke-miterlimit:10;stroke-dasharray:none;stroke-opacity:1"
         d="M 0,0 0,11.955" /></g><text
       id="text28"
       style="font-variant:normal;font-weight:normal;font-size:9.96259975px;font-family:CMBX10;-inkscape-font-specification:CMBX10;writing-mode:lr-tb;fill:#000000;fill-opacity:1;fill-rule:nonzero;stroke:none"
       transform="matrix(1,0,0,-1,35.367,78.107)"><tspan
         id="tspan30"
         y="0"
         x="0 6.8911304 12.938429 18.030313 23.599407 28.054682 31.236736 36.965233">Location</tspan></text>
<g
       transform="translate(84.675,74.521)"
       id="g32"><path
         id="path34"
         style="fill:none;stroke:#000000;stroke-width:0.398;stroke-linecap:butt;stroke-linejoin:miter;stroke-miterlimit:10;stroke-dasharray:none;stroke-opacity:1"
         d="M 0,0 0,11.955" /></g><text
       id="text36"
       style="font-variant:normal;font-weight:normal;font-size:9.96259975px;font-family:CMBX10;-inkscape-font-specification:CMBX10;writing-mode:lr-tb;fill:#000000;fill-opacity:1;fill-rule:nonzero;stroke:none"
       transform="matrix(1,0,0,-1,90.653,78.107)"><tspan
         id="tspan38"
         y="0"
         x="0 8.5927429 13.844029 17.344887 22.596172 27.314461 32.565746 38.930851 44.022736">Reference</tspan></text>
<g
       transform="translate(145.904,74.521)"
       id="g40"><path
         id="path42"
         style="fill:none;stroke:#000000;stroke-width:0.398;stroke-linecap:butt;stroke-linejoin:miter;stroke-miterlimit:10;stroke-dasharray:none;stroke-opacity:1"
         d="M 0,0 0,11.955" /></g><text
       id="text44"
       style="font-variant:normal;font-weight:normal;font-size:9.96259975px;font-family:CMBX10;-inkscape-font-specification:CMBX10;writing-mode:lr-tb;fill:#000000;fill-opacity:1;fill-rule:nonzero;stroke:none"
       transform="matrix(1,0,0,-1,164.092,78.107)"><tspan
         id="tspan46"
         y="0"
         x="0 8.2749357 14.00343 23.550591 33.097752 38.349037 44.39534 48.850613">Comments</tspan></text>
<g
       transform="translate(235.651,74.521)"
       id="g48"><path
         id="path50"
         style="fill:none;stroke:#000000;stroke-width:0.398;stroke-linecap:butt;stroke-linejoin:miter;stroke-miterlimit:10;stroke-dasharray:none;stroke-opacity:1"
         d="M 0,0 0,11.955" /></g><g
       transform="translate(0,74.321)"
       id="g52"><path
         id="path54"
         style="fill:none;stroke:#000000;stroke-width:0.398;stroke-linecap:butt;stroke-linejoin:miter;stroke-miterlimit:10;stroke-dasharray:none;stroke-opacity:1"
         d="M 0,0 235.651,0" /></g><g
       transform="translate(0,62.167)"
       id="g56"><path
         id="path58"
         style="fill:none;stroke:#000000;stroke-width:0.398;stroke-linecap:butt;stroke-linejoin:miter;stroke-miterlimit:10;stroke-dasharray:none;stroke-opacity:1"
         d="M 0,0 0,11.955" /></g><text
       id="text60"
       style="font-variant:normal;font-weight:normal;font-size:9.96259975px;font-family:CMR10;-inkscape-font-specification:CMR10;writing-mode:lr-tb;fill:#000000;fill-opacity:1;fill-rule:nonzero;stroke:none"
       transform="matrix(1,0,0,-1,5.978,65.753)"><tspan
         id="tspan62"
         y="0"
         x="0 7.4719501 12.45325">U17</tspan></text>
<g
       transform="translate(29.39,62.167)"
       id="g64"><path
         id="path66"
         style="fill:none;stroke:#000000;stroke-width:0.398;stroke-linecap:butt;stroke-linejoin:miter;stroke-miterlimit:10;stroke-dasharray:none;stroke-opacity:1"
         d="M 0,0 0,11.955" /></g><text
       id="text68"
       style="font-variant:normal;font-weight:normal;font-size:9.96259975px;font-family:CMR10;-inkscape-font-specification:CMR10;writing-mode:lr-tb;fill:#000000;fill-opacity:1;fill-rule:nonzero;stroke:none"
       transform="matrix(1,0,0,-1,48.163,65.753)"><tspan
         id="tspan70"
         y="0"
         x="0 4.4273796 9.408679 13.311029">core</tspan></text>
<g
       transform="translate(84.675,62.167)"
       id="g72"><path
         id="path74"
         style="fill:none;stroke:#000000;stroke-width:0.398;stroke-linecap:butt;stroke-linejoin:miter;stroke-miterlimit:10;stroke-dasharray:none;stroke-opacity:1"
         d="M 0,0 0,11.955" /></g><text
       id="text76"
       style="font-variant:normal;font-weight:normal;font-size:9.96259975px;font-family:CMR10;-inkscape-font-specification:CMR10;writing-mode:lr-tb;fill:#000000;fill-opacity:1;fill-rule:nonzero;stroke:none"
       transform="matrix(1,0,0,-1,108.925,65.753)"><tspan
         id="tspan78"
         y="0"
         x="0 3.8744552 8.8557549">(1)</tspan></text>
<g
       transform="translate(145.904,62.167)"
       id="g80"><path
         id="path82"
         style="fill:none;stroke:#000000;stroke-width:0.398;stroke-linecap:butt;stroke-linejoin:miter;stroke-miterlimit:10;stroke-dasharray:none;stroke-opacity:1"
         d="M 0,0 0,11.955" /></g><text
       id="text84"
       style="font-variant:normal;font-weight:normal;font-size:9.96259975px;font-family:CMR10;-inkscape-font-specification:CMR10;writing-mode:lr-tb;fill:#000000;fill-opacity:1;fill-rule:nonzero;stroke:none"
       transform="matrix(1,0,0,-1,170.437,65.753)"><tspan
         id="tspan86"
         y="0"
         x="0 7.4719501 13.007171 20.20216 26.287317 31.268616 36.803837">HST,opt</tspan></text>
<g
       transform="translate(235.651,62.167)"
       id="g88"><path
         id="path90"
         style="fill:none;stroke:#000000;stroke-width:0.398;stroke-linecap:butt;stroke-linejoin:miter;stroke-miterlimit:10;stroke-dasharray:none;stroke-opacity:1"
         d="M 0,0 0,11.955" /></g><g
       transform="translate(0,61.968)"
       id="g92"><path
         id="path94"
         style="fill:none;stroke:#000000;stroke-width:0.398;stroke-linecap:butt;stroke-linejoin:miter;stroke-miterlimit:10;stroke-dasharray:none;stroke-opacity:1"
         d="M 0,0 235.651,0" /></g><g
       transform="translate(0,49.813)"
       id="g96"><path
         id="path98"
         style="fill:none;stroke:#000000;stroke-width:0.398;stroke-linecap:butt;stroke-linejoin:miter;stroke-miterlimit:10;stroke-dasharray:none;stroke-opacity:1"
         d="M 0,0 0,11.955" /></g><text
       id="text100"
       style="font-variant:normal;font-weight:normal;font-size:9.96259975px;font-family:CMR10;-inkscape-font-specification:CMR10;writing-mode:lr-tb;fill:#000000;fill-opacity:1;fill-rule:nonzero;stroke:none"
       transform="matrix(1,0,0,-1,5.978,53.4)"><tspan
         id="tspan102"
         y="0"
         x="0 7.4719501 12.45325">U19</tspan></text>
<g
       transform="translate(29.39,49.813)"
       id="g104"><path
         id="path106"
         style="fill:none;stroke:#000000;stroke-width:0.398;stroke-linecap:butt;stroke-linejoin:miter;stroke-miterlimit:10;stroke-dasharray:none;stroke-opacity:1"
         d="M 0,0 0,11.955" /></g><text
       id="text108"
       style="font-variant:normal;font-weight:normal;font-size:9.96259975px;font-family:CMR10;-inkscape-font-specification:CMR10;writing-mode:lr-tb;fill:#000000;fill-opacity:1;fill-rule:nonzero;stroke:none"
       transform="matrix(1,0,0,-1,48.163,53.4)"><tspan
         id="tspan110"
         y="0"
         x="0 4.4273796 9.408679 13.311029">core</tspan></text>
<g
       transform="translate(84.675,49.813)"
       id="g112"><path
         id="path114"
         style="fill:none;stroke:#000000;stroke-width:0.398;stroke-linecap:butt;stroke-linejoin:miter;stroke-miterlimit:10;stroke-dasharray:none;stroke-opacity:1"
         d="M 0,0 0,11.955" /></g><text
       id="text116"
       style="font-variant:normal;font-weight:normal;font-size:9.96259975px;font-family:CMR10;-inkscape-font-specification:CMR10;writing-mode:lr-tb;fill:#000000;fill-opacity:1;fill-rule:nonzero;stroke:none"
       transform="matrix(1,0,0,-1,108.925,53.4)"><tspan
         id="tspan118"
         y="0"
         x="0 3.8744552 8.8557549">(1)</tspan></text>
<g
       transform="translate(145.904,49.813)"
       id="g120"><path
         id="path122"
         style="fill:none;stroke:#000000;stroke-width:0.398;stroke-linecap:butt;stroke-linejoin:miter;stroke-miterlimit:10;stroke-dasharray:none;stroke-opacity:1"
         d="M 0,0 0,11.955" /></g><text
       id="text124"
       style="font-variant:normal;font-weight:normal;font-size:9.96259975px;font-family:CMR10;-inkscape-font-specification:CMR10;writing-mode:lr-tb;fill:#000000;fill-opacity:1;fill-rule:nonzero;stroke:none"
       transform="matrix(1,0,0,-1,170.437,53.4)"><tspan
         id="tspan126"
         y="0"
         x="0 7.4719501 13.007171 20.20216 26.287317 31.268616 36.803837">HST,opt</tspan></text>
<g
       transform="translate(235.651,49.813)"
       id="g128"><path
         id="path130"
         style="fill:none;stroke:#000000;stroke-width:0.398;stroke-linecap:butt;stroke-linejoin:miter;stroke-miterlimit:10;stroke-dasharray:none;stroke-opacity:1"
         d="M 0,0 0,11.955" /></g><g
       transform="translate(0,49.614)"
       id="g132"><path
         id="path134"
         style="fill:none;stroke:#000000;stroke-width:0.398;stroke-linecap:butt;stroke-linejoin:miter;stroke-miterlimit:10;stroke-dasharray:none;stroke-opacity:1"
         d="M 0,0 235.651,0" /></g><g
       transform="translate(0,37.46)"
       id="g136"><path
         id="path138"
         style="fill:none;stroke:#000000;stroke-width:0.398;stroke-linecap:butt;stroke-linejoin:miter;stroke-miterlimit:10;stroke-dasharray:none;stroke-opacity:1"
         d="M 0,0 0,11.955" /></g><text
       id="text140"
       style="font-variant:normal;font-weight:normal;font-size:9.96259975px;font-family:CMR10;-inkscape-font-specification:CMR10;writing-mode:lr-tb;fill:#000000;fill-opacity:1;fill-rule:nonzero;stroke:none"
       transform="matrix(1,0,0,-1,5.978,41.046)"><tspan
         id="tspan142"
         y="0"
         x="0 7.4719501 12.45325">U23</tspan></text>
<g
       transform="translate(29.39,37.46)"
       id="g144"><path
         id="path146"
         style="fill:none;stroke:#000000;stroke-width:0.398;stroke-linecap:butt;stroke-linejoin:miter;stroke-miterlimit:10;stroke-dasharray:none;stroke-opacity:1"
         d="M 0,0 0,11.955" /></g><text
       id="text148"
       style="font-variant:normal;font-weight:normal;font-size:9.96259975px;font-family:CMR10;-inkscape-font-specification:CMR10;writing-mode:lr-tb;fill:#000000;fill-opacity:1;fill-rule:nonzero;stroke:none"
       transform="matrix(1,0,0,-1,48.163,41.046)"><tspan
         id="tspan150"
         y="0"
         x="0 4.4273796 9.408679 13.311029">core</tspan></text>
<g
       transform="translate(84.675,37.46)"
       id="g152"><path
         id="path154"
         style="fill:none;stroke:#000000;stroke-width:0.398;stroke-linecap:butt;stroke-linejoin:miter;stroke-miterlimit:10;stroke-dasharray:none;stroke-opacity:1"
         d="M 0,0 0,11.955" /></g><text
       id="text156"
       style="font-variant:normal;font-weight:normal;font-size:9.96259975px;font-family:CMR10;-inkscape-font-specification:CMR10;writing-mode:lr-tb;fill:#000000;fill-opacity:1;fill-rule:nonzero;stroke:none"
       transform="matrix(1,0,0,-1,108.925,41.046)"><tspan
         id="tspan158"
         y="0"
         x="0 3.8744552 8.8557549">(1)</tspan></text>
<g
       transform="translate(145.904,37.46)"
       id="g160"><path
         id="path162"
         style="fill:none;stroke:#000000;stroke-width:0.398;stroke-linecap:butt;stroke-linejoin:miter;stroke-miterlimit:10;stroke-dasharray:none;stroke-opacity:1"
         d="M 0,0 0,11.955" /></g><text
       id="text164"
       style="font-variant:normal;font-weight:normal;font-size:9.96259975px;font-family:CMR10;-inkscape-font-specification:CMR10;writing-mode:lr-tb;fill:#000000;fill-opacity:1;fill-rule:nonzero;stroke:none"
       transform="matrix(1,0,0,-1,151.881,41.046)"><tspan
         id="tspan166"
         y="0"
         x="0 7.7489104 13.284131 17.986479 25.181467 34.044197 39.848408 44.275787 48.178139 50.945747 56.206001 65.058769 68.93322 73.91452">Knownperiod(3)</tspan></text>
<g
       transform="translate(235.651,37.46)"
       id="g168"><path
         id="path170"
         style="fill:none;stroke:#000000;stroke-width:0.398;stroke-linecap:butt;stroke-linejoin:miter;stroke-miterlimit:10;stroke-dasharray:none;stroke-opacity:1"
         d="M 0,0 0,11.955" /></g><g
       transform="translate(0,37.26)"
       id="g172"><path
         id="path174"
         style="fill:none;stroke:#000000;stroke-width:0.398;stroke-linecap:butt;stroke-linejoin:miter;stroke-miterlimit:10;stroke-dasharray:none;stroke-opacity:1"
         d="M 0,0 235.651,0" /></g><g
       transform="translate(0,25.106)"
       id="g176"><path
         id="path178"
         style="fill:none;stroke:#000000;stroke-width:0.398;stroke-linecap:butt;stroke-linejoin:miter;stroke-miterlimit:10;stroke-dasharray:none;stroke-opacity:1"
         d="M 0,0 0,11.955" /></g><text
       id="text180"
       style="font-variant:normal;font-weight:normal;font-size:9.96259975px;font-family:CMR10;-inkscape-font-specification:CMR10;writing-mode:lr-tb;fill:#000000;fill-opacity:1;fill-rule:nonzero;stroke:none"
       transform="matrix(1,0,0,-1,5.978,28.692)"><tspan
         id="tspan182"
         y="0"
         x="0 7.4719501 12.45325">U21</tspan></text>
<g
       transform="translate(29.39,25.106)"
       id="g184"><path
         id="path186"
         style="fill:none;stroke:#000000;stroke-width:0.398;stroke-linecap:butt;stroke-linejoin:miter;stroke-miterlimit:10;stroke-dasharray:none;stroke-opacity:1"
         d="M 0,0 0,11.955" /></g><text
       id="text188"
       style="font-variant:normal;font-weight:normal;font-size:9.96259975px;font-family:CMR10;-inkscape-font-specification:CMR10;writing-mode:lr-tb;fill:#000000;fill-opacity:1;fill-rule:nonzero;stroke:none"
       transform="matrix(1,0,0,-1,48.163,28.692)"><tspan
         id="tspan190"
         y="0"
         x="0 4.4273796 9.408679 13.311029">core</tspan></text>
<g
       transform="translate(84.675,25.106)"
       id="g192"><path
         id="path194"
         style="fill:none;stroke:#000000;stroke-width:0.398;stroke-linecap:butt;stroke-linejoin:miter;stroke-miterlimit:10;stroke-dasharray:none;stroke-opacity:1"
         d="M 0,0 0,11.955" /></g><text
       id="text196"
       style="font-variant:normal;font-weight:normal;font-size:9.96259975px;font-family:CMR10;-inkscape-font-specification:CMR10;writing-mode:lr-tb;fill:#000000;fill-opacity:1;fill-rule:nonzero;stroke:none"
       transform="matrix(1,0,0,-1,108.925,28.692)"><tspan
         id="tspan198"
         y="0"
         x="0 3.8744552 8.8557549">(2)</tspan></text>
<g
       transform="translate(145.904,25.106)"
       id="g200"><path
         id="path202"
         style="fill:none;stroke:#000000;stroke-width:0.398;stroke-linecap:butt;stroke-linejoin:miter;stroke-miterlimit:10;stroke-dasharray:none;stroke-opacity:1"
         d="M 0,0 0,11.955" /></g><text
       id="text204"
       style="font-variant:normal;font-weight:normal;font-size:9.96259975px;font-family:CMR10;-inkscape-font-specification:CMR10;writing-mode:lr-tb;fill:#000000;fill-opacity:1;fill-rule:nonzero;stroke:none"
       transform="matrix(1,0,0,-1,170.437,28.692)"><tspan
         id="tspan206"
         y="0"
         x="0 7.4719501 13.007171 20.20216 26.287317 31.268616 36.803837">HST,opt</tspan></text>
<g
       transform="translate(235.651,25.106)"
       id="g208"><path
         id="path210"
         style="fill:none;stroke:#000000;stroke-width:0.398;stroke-linecap:butt;stroke-linejoin:miter;stroke-miterlimit:10;stroke-dasharray:none;stroke-opacity:1"
         d="M 0,0 0,11.955" /></g><g
       transform="translate(0,24.907)"
       id="g212"><path
         id="path214"
         style="fill:none;stroke:#000000;stroke-width:0.398;stroke-linecap:butt;stroke-linejoin:miter;stroke-miterlimit:10;stroke-dasharray:none;stroke-opacity:1"
         d="M 0,0 235.651,0" /></g><g
       transform="translate(0,12.752)"
       id="g216"><path
         id="path218"
         style="fill:none;stroke:#000000;stroke-width:0.398;stroke-linecap:butt;stroke-linejoin:miter;stroke-miterlimit:10;stroke-dasharray:none;stroke-opacity:1"
         d="M 0,0 0,11.955" /></g><text
       id="text220"
       style="font-variant:normal;font-weight:normal;font-size:9.96259975px;font-family:CMR10;-inkscape-font-specification:CMR10;writing-mode:lr-tb;fill:#000000;fill-opacity:1;fill-rule:nonzero;stroke:none"
       transform="matrix(1,0,0,-1,5.978,16.339)"><tspan
         id="tspan222"
         y="0"
         x="0 7.4719501 12.45325">U22</tspan></text>
<g
       transform="translate(29.39,12.752)"
       id="g224"><path
         id="path226"
         style="fill:none;stroke:#000000;stroke-width:0.398;stroke-linecap:butt;stroke-linejoin:miter;stroke-miterlimit:10;stroke-dasharray:none;stroke-opacity:1"
         d="M 0,0 0,11.955" /></g><text
       id="text228"
       style="font-variant:normal;font-weight:normal;font-size:9.96259975px;font-family:CMR10;-inkscape-font-specification:CMR10;writing-mode:lr-tb;fill:#000000;fill-opacity:1;fill-rule:nonzero;stroke:none"
       transform="matrix(1,0,0,-1,48.163,16.339)"><tspan
         id="tspan230"
         y="0"
         x="0 4.4273796 9.408679 13.311029">core</tspan></text>
<g
       transform="translate(84.675,12.752)"
       id="g232"><path
         id="path234"
         style="fill:none;stroke:#000000;stroke-width:0.398;stroke-linecap:butt;stroke-linejoin:miter;stroke-miterlimit:10;stroke-dasharray:none;stroke-opacity:1"
         d="M 0,0 0,11.955" /></g><text
       id="text236"
       style="font-variant:normal;font-weight:normal;font-size:9.96259975px;font-family:CMR10;-inkscape-font-specification:CMR10;writing-mode:lr-tb;fill:#000000;fill-opacity:1;fill-rule:nonzero;stroke:none"
       transform="matrix(1,0,0,-1,93.386,16.339)"><tspan
         id="tspan238"
         y="0"
         x="0 7.1949897 12.73021 15.497821 22.744616 29.670616 34.651917 38.554264">Thiswork</tspan></text>
<g
       transform="translate(145.904,12.752)"
       id="g240"><path
         id="path242"
         style="fill:none;stroke:#000000;stroke-width:0.398;stroke-linecap:butt;stroke-linejoin:miter;stroke-miterlimit:10;stroke-dasharray:none;stroke-opacity:1"
         d="M 0,0 0,11.955" /></g><text
       id="text244"
       style="font-variant:normal;font-weight:normal;font-size:9.96259975px;font-family:CMR10;-inkscape-font-specification:CMR10;writing-mode:lr-tb;fill:#000000;fill-opacity:1;fill-rule:nonzero;stroke:none"
       transform="matrix(1,0,0,-1,189.117,16.339)"><tspan
         id="tspan246"
         y="0"
         x="0">-</tspan></text>
<g
       transform="translate(235.651,12.752)"
       id="g248"><path
         id="path250"
         style="fill:none;stroke:#000000;stroke-width:0.398;stroke-linecap:butt;stroke-linejoin:miter;stroke-miterlimit:10;stroke-dasharray:none;stroke-opacity:1"
         d="M 0,0 0,11.955" /></g><g
       transform="translate(0,12.553)"
       id="g252"><path
         id="path254"
         style="fill:none;stroke:#000000;stroke-width:0.398;stroke-linecap:butt;stroke-linejoin:miter;stroke-miterlimit:10;stroke-dasharray:none;stroke-opacity:1"
         d="M 0,0 235.651,0" /></g><g
       transform="translate(0,0.399)"
       id="g256"><path
         id="path258"
         style="fill:none;stroke:#000000;stroke-width:0.398;stroke-linecap:butt;stroke-linejoin:miter;stroke-miterlimit:10;stroke-dasharray:none;stroke-opacity:1"
         d="M 0,0 0,11.955" /></g><text
       id="text260"
       style="font-variant:normal;font-weight:normal;font-size:9.96259975px;font-family:CMR10;-inkscape-font-specification:CMR10;writing-mode:lr-tb;fill:#000000;fill-opacity:1;fill-rule:nonzero;stroke:none"
       transform="matrix(1,0,0,-1,5.978,3.985)"><tspan
         id="tspan262"
         y="0"
         x="0 7.4719501 12.45325">U10</tspan></text>
<g
       transform="translate(29.39,0.399)"
       id="g264"><path
         id="path266"
         style="fill:none;stroke:#000000;stroke-width:0.398;stroke-linecap:butt;stroke-linejoin:miter;stroke-miterlimit:10;stroke-dasharray:none;stroke-opacity:1"
         d="M 0,0 0,11.955" /></g><text
       id="text268"
       style="font-variant:normal;font-weight:normal;font-size:9.96259975px;font-family:CMR10;-inkscape-font-specification:CMR10;writing-mode:lr-tb;fill:#000000;fill-opacity:1;fill-rule:nonzero;stroke:none"
       transform="matrix(1,0,0,-1,38.007,3.985)"><tspan
         id="tspan270"
         y="0"
         x="0 4.9812999 10.516521 14.390976 18.320225 23.578485 26.346096 30.248446 34.122902">outskirts</tspan></text>
<g
       transform="translate(84.675,0.399)"
       id="g272"><path
         id="path274"
         style="fill:none;stroke:#000000;stroke-width:0.398;stroke-linecap:butt;stroke-linejoin:miter;stroke-miterlimit:10;stroke-dasharray:none;stroke-opacity:1"
         d="M 0,0 0,11.955" /></g><text
       id="text276"
       style="font-variant:normal;font-weight:normal;font-size:9.96259975px;font-family:CMR10;-inkscape-font-specification:CMR10;writing-mode:lr-tb;fill:#000000;fill-opacity:1;fill-rule:nonzero;stroke:none"
       transform="matrix(1,0,0,-1,93.386,3.985)"><tspan
         id="tspan278"
         y="0"
         x="0 7.1949897 12.73021 15.497821 22.744616 29.670616 34.651917 38.554264">Thiswork</tspan></text>
<g
       transform="translate(145.904,0.399)"
       id="g280"><path
         id="path282"
         style="fill:none;stroke:#000000;stroke-width:0.398;stroke-linecap:butt;stroke-linejoin:miter;stroke-miterlimit:10;stroke-dasharray:none;stroke-opacity:1"
         d="M 0,0 0,11.955" /></g><text
       id="text284"
       style="font-variant:normal;font-weight:normal;font-size:9.96259975px;font-family:CMR10;-inkscape-font-specification:CMR10;writing-mode:lr-tb;fill:#000000;fill-opacity:1;fill-rule:nonzero;stroke:none"
       transform="matrix(1,0,0,-1,151.881,3.985)"><tspan
         id="tspan286"
         y="0"
         x="0 7.7489104 13.284131 17.986479 25.181467 34.044197 39.848408 44.275787 48.178139 50.945747 56.206001 65.058769 68.93322 73.91452">Knownperiod(3)</tspan></text>
<g
       transform="translate(235.651,0.399)"
       id="g288"><path
         id="path290"
         style="fill:none;stroke:#000000;stroke-width:0.398;stroke-linecap:butt;stroke-linejoin:miter;stroke-miterlimit:10;stroke-dasharray:none;stroke-opacity:1"
         d="M 0,0 0,11.955" /></g><g
       transform="translate(0,0.199)"
       id="g292"><path
         id="path294"
         style="fill:none;stroke:#000000;stroke-width:0.398;stroke-linecap:butt;stroke-linejoin:miter;stroke-miterlimit:10;stroke-dasharray:none;stroke-opacity:1"
         d="M 0,0 235.651,0" /></g></g></svg>
